<svg width="38" height="38" viewBox="0 0 38 38" fill="none" xmlns="http://www.w3.org/2000/svg">
<g clip-path="url(#clip0_11_2)">
<path d="M22.515 7.49609C21.2313 7.49609 19.9993 7.53053 18.8433 7.63978C17.6896 7.53053 16.4564 7.49609 15.1739 7.49609C8.75841 7.49609 3.5625 8.24719 3.5625 15.8145C3.5625 23.3795 8.75841 38.1769 15.1739 38.1769C16.4552 38.1769 17.6896 37.5761 18.8433 36.5649C19.9969 37.5761 21.2301 38.1769 22.515 38.1769C28.9263 38.1769 34.124 23.3795 34.124 15.8145C34.124 8.24719 28.9269 7.49609 22.515 7.49609Z" fill="#8CC640"/>
<path d="M23.7031 36.4505C21.4106 35.8282 19.6638 34.4157 17.2805 35.6851C16.4772 36.1132 15.2724 36.5093 14.3587 36.2219C11.0598 35.184 10.2647 31.8709 9.41391 28.8006C7.999 23.6979 5.56938 15.1871 7.04009 8.78174C4.89606 9.90452 3.5625 11.9856 3.5625 15.8141C3.5625 23.3791 8.75841 38.1765 15.1739 38.1765C16.4552 38.1765 17.6896 37.5756 18.8433 36.5645C19.9969 37.5756 21.2301 38.1765 22.515 38.1765C23.7084 38.1765 24.8639 37.6611 25.9475 36.7765C25.2112 36.742 24.4649 36.6571 23.7031 36.4505Z" fill="#83AE40"/>
<path d="M14.414 0.616501C14.5749 0.662813 14.927 1.61578 14.921 1.70781C14.7856 4.08044 18.1457 8.6725 18.6527 9.29713C19.829 10.7506 20.1864 12.8893 19.2833 13.0894C18.4129 13.2818 15.5908 10.566 15.0024 10.0435C13.5631 8.75741 12.321 6.83959 11.7231 5.00134C11.0925 3.06453 11.9054 -0.0740304 14.414 0.616501Z" fill="#2BB573"/>
<path d="M20.4638 0.0111231C18.5133 -0.266158 14.9639 4.72015 14.7685 6.0935C14.5738 7.46447 18.597 6.46044 20.8776 6.18315C23.2259 5.89875 25.6146 5.73369 25.8087 4.36272C26.0029 2.99115 22.4113 0.287811 20.465 0.0111231" fill="#04A69C"/>
</g>
<defs>
<clipPath id="clip0_11_2">
<rect width="38" height="38" fill="white"/>
</clipPath>
</defs>
</svg>
