<svg width="36" height="36" viewBox="0 0 36 36" fill="none" xmlns="http://www.w3.org/2000/svg">
<path d="M22.614 34.845C26.076 33.691 28.731 31.811 28.734 25.472C28.736 21.461 33 17 32.999 12.921C32.998 9 28.384 2.537 17.899 3.635C7.12202 4.764 3.00002 8 2.99902 15.073C2.99902 20 8.30302 23.454 11.126 28.591C13 32 18.551 38.187 22.614 34.845Z" fill="#BE1931"/>
<path d="M26.252 3.57193C24.974 2.52793 22.972 2.02193 20.902 1.89493C21.175 1.85793 21.444 1.81893 21.722 1.80093C22.695 1.73793 25.336 0.568933 23.122 0.713933C22.153 0.776933 21.221 0.972933 20.285 1.13693C20.522 0.982933 20.764 0.830933 21.025 0.694933C21 -6.73532e-05 17 -6.73532e-05 14.981 1.68793C14.469 1.57593 14 0.999933 11 0.999933C9 0.999933 6.315 1.92593 8 1.99993C8.917 2.04093 10 1.99993 9.858 2.36493C9.203 2.42493 6 2.99993 6 3.99993C6 4.35293 8.76 3.82693 9 3.99993C7.278 4.64393 6 5.99993 6 6.99993C6 7.42293 8.211 6.17493 9 5.99993C8 6.99993 7.6 7.70093 7.658 8.42693C7.696 8.90193 10.046 8.33693 10.29 8.25793C11.112 7.98793 14 6.99993 14.89 5.53393C15.007 5.81893 17.853 6.87493 19 6.99993C19.529 7.05793 21.62 7.27393 21.141 6.28893C21 5.99993 20 4.99993 19.695 4.02493C20.141 4.00593 28 4.99993 26.252 3.57193Z" fill="#77B255"/>
<path d="M9.33899 17.306C9.20299 15.846 6.79899 14.054 7.00799 16.306C7.14399 17.766 9.54799 19.558 9.33899 17.306ZM16.797 17.859C16.728 17.237 16.515 16.668 16.11 16.188C15.644 15.638 15.035 15.826 14.876 16.504C14.689 17.303 14.958 18.256 15.482 18.876L15.523 18.924C15.31 18.399 15.096 17.874 14.881 17.35L14.887 17.397C14.958 18.037 15.284 19.127 16.023 19.303C16.777 19.485 16.849 18.315 16.797 17.859ZM22.549 13.018C23.025 12.063 22.719 9.056 21.718 11.064C21.242 12.018 21.547 15.026 22.549 13.018ZM29.76 11.561C29.73 11.204 29.687 10.781 29.369 10.551C28.18 9.693 26.988 12.91 27.984 13.631C28.004 13.643 28.02 13.656 28.039 13.67L27.708 12.751C27.708 12.7684 27.709 12.7857 27.711 12.803C27.76 13.367 28.087 14.18 28.795 13.751C29.462 13.345 29.823 12.307 29.76 11.561ZM28.415 20.128C29.431 18.559 27.87 16.677 26.635 18.586C25.619 20.154 27.181 22.036 28.415 20.128ZM22.667 23.022C22.84 21.084 20.358 20.27 20.157 22.526C19.984 24.464 22.466 25.278 22.667 23.022ZM12.771 21.81L12.722 21.814L14.084 22.529C14.078 22.525 14.073 22.518 14.066 22.512C13.76 22.232 12.713 21.429 12.278 21.92C11.838 22.417 12.776 23.341 13.082 23.623C13.424 23.937 14.01 24.386 14.511 24.353C15.948 24.26 13.728 21.748 12.771 21.81ZM25.998 27.717C26.967 26.651 26.723 23.667 25.2 25.341C24.231 26.407 24.476 29.391 25.998 27.717ZM12.599 13.753C12.692 13.748 12.786 13.741 12.879 13.734C13.582 13.688 13.883 12.28 13.921 11.782C13.965 11.211 13.878 10.326 13.136 10.375L12.855 10.394C12.153 10.441 11.851 11.848 11.813 12.346C11.769 12.917 11.857 13.803 12.599 13.753ZM20.445 29.01C20.84 29.774 20.697 30.633 20.125 30.929C19.553 31.225 18.768 30.848 18.372 30.085C17.977 29.321 18.12 28.462 18.692 28.166C19.265 27.87 20.049 28.247 20.445 29.01Z" fill="#F4ABBA"/>
</svg>
