<svg width="2647" height="832" viewBox="0 0 2647 832" fill="none" xmlns="http://www.w3.org/2000/svg">
<g clip-path="url(#clip0_51_14)">
<rect width="2647" height="832" fill="white"/>
<rect x="1777.5" y="0.5" width="869" height="831" fill="white"/>
<rect x="1777.5" y="0.5" width="869" height="831" stroke="black"/>
<rect x="1937.5" y="209" width="620" height="461" rx="32" fill="#F3F3F3"/>
<rect x="2100.5" y="523" width="294" height="101" rx="21" fill="#D9D9D9"/>
<path d="M2133.33 295.239C2133.05 294.318 2132.65 293.494 2132.15 292.767C2131.66 292.028 2131.07 291.398 2130.38 290.875C2129.7 290.352 2128.91 289.96 2128.03 289.699C2127.14 289.426 2126.18 289.29 2125.13 289.29C2123.26 289.29 2121.59 289.761 2120.12 290.705C2118.65 291.648 2117.5 293.034 2116.66 294.864C2115.83 296.682 2115.41 298.898 2115.41 301.511C2115.41 304.148 2115.83 306.381 2116.66 308.21C2117.49 310.04 2118.64 311.432 2120.12 312.386C2121.6 313.33 2123.31 313.801 2125.27 313.801C2127.04 313.801 2128.57 313.46 2129.87 312.778C2131.18 312.097 2132.18 311.131 2132.89 309.881C2133.59 308.619 2133.94 307.142 2133.94 305.449L2135.38 305.67H2125.9V300.727H2140.06V304.92C2140.06 307.909 2139.43 310.494 2138.15 312.676C2136.88 314.858 2135.13 316.54 2132.9 317.722C2130.68 318.892 2128.12 319.477 2125.23 319.477C2122.02 319.477 2119.19 318.756 2116.76 317.312C2114.34 315.858 2112.45 313.795 2111.09 311.125C2109.73 308.443 2109.06 305.261 2109.06 301.58C2109.06 298.761 2109.45 296.244 2110.25 294.028C2111.06 291.812 2112.18 289.932 2113.62 288.386C2115.07 286.83 2116.76 285.648 2118.7 284.841C2120.65 284.023 2122.76 283.614 2125.05 283.614C2126.98 283.614 2128.78 283.898 2130.45 284.466C2132.12 285.023 2133.6 285.818 2134.9 286.852C2136.2 287.886 2137.28 289.114 2138.12 290.534C2138.96 291.955 2139.51 293.523 2139.77 295.239H2133.33ZM2149.58 319H2142.83L2155.12 284.091H2162.93L2175.24 319H2168.49L2159.16 291.25H2158.89L2149.58 319ZM2149.8 305.312H2168.21V310.392H2149.8V305.312ZM2179.83 284.091H2187.57L2197.94 309.386H2198.35L2208.71 284.091H2216.45V319H2210.38V295.017H2210.06L2200.41 318.898H2195.87L2186.23 294.966H2185.9V319H2179.83V284.091ZM2223.33 319V284.091H2246.04V289.392H2229.66V298.869H2244.86V304.17H2229.66V313.699H2246.17V319H2223.33ZM2295.59 301.545C2295.59 305.307 2294.88 308.528 2293.48 311.21C2292.08 313.881 2290.17 315.926 2287.75 317.347C2285.34 318.767 2282.61 319.477 2279.55 319.477C2276.49 319.477 2273.75 318.767 2271.33 317.347C2268.92 315.915 2267.02 313.864 2265.61 311.193C2264.21 308.511 2263.51 305.295 2263.51 301.545C2263.51 297.784 2264.21 294.568 2265.61 291.898C2267.02 289.216 2268.92 287.165 2271.33 285.744C2273.75 284.324 2276.49 283.614 2279.55 283.614C2282.61 283.614 2285.34 284.324 2287.75 285.744C2290.17 287.165 2292.08 289.216 2293.48 291.898C2294.88 294.568 2295.59 297.784 2295.59 301.545ZM2289.23 301.545C2289.23 298.898 2288.82 296.665 2287.99 294.847C2287.17 293.017 2286.03 291.636 2284.58 290.705C2283.12 289.761 2281.45 289.29 2279.55 289.29C2277.65 289.29 2275.98 289.761 2274.52 290.705C2273.07 291.636 2271.92 293.017 2271.1 294.847C2270.28 296.665 2269.87 298.898 2269.87 301.545C2269.87 304.193 2270.28 306.432 2271.1 308.261C2271.92 310.08 2273.07 311.46 2274.52 312.403C2275.98 313.335 2277.65 313.801 2279.55 313.801C2281.45 313.801 2283.12 313.335 2284.58 312.403C2286.03 311.46 2287.17 310.08 2287.99 308.261C2288.82 306.432 2289.23 304.193 2289.23 301.545ZM2304.36 284.091L2313.45 311.568H2313.81L2322.88 284.091H2329.83L2317.52 319H2309.72L2297.43 284.091H2304.36ZM2334.43 319V284.091H2357.13V289.392H2340.75V298.869H2355.96V304.17H2340.75V313.699H2357.27V319H2334.43ZM2363.58 319V284.091H2376.67C2379.36 284.091 2381.61 284.557 2383.42 285.489C2385.25 286.42 2386.63 287.727 2387.57 289.409C2388.51 291.08 2388.98 293.028 2388.98 295.256C2388.98 297.494 2388.5 299.437 2387.55 301.085C2386.61 302.722 2385.21 303.989 2383.37 304.886C2381.53 305.773 2379.27 306.216 2376.59 306.216H2367.27V300.966H2375.74C2377.31 300.966 2378.59 300.75 2379.59 300.318C2380.59 299.875 2381.33 299.233 2381.81 298.392C2382.29 297.54 2382.54 296.494 2382.54 295.256C2382.54 294.017 2382.29 292.96 2381.81 292.085C2381.32 291.199 2380.57 290.528 2379.57 290.074C2378.57 289.608 2377.28 289.375 2375.7 289.375H2369.91V319H2363.58ZM2381.62 303.182L2390.26 319H2383.2L2374.71 303.182H2381.62Z" fill="black"/>
<path d="M2093.08 440V413.818H2109.86V417.794H2097.83V424.902H2108.7V428.878H2097.83V440H2093.08ZM2118.92 413.818V440H2114.18V413.818H2118.92ZM2145.57 413.818V440H2141.35L2129.02 422.166H2128.8V440H2124.06V413.818H2128.3L2140.62 431.665H2140.85V413.818H2145.57ZM2154.1 440H2149.04L2158.26 413.818H2164.11L2173.34 440H2168.28L2161.29 419.188H2161.08L2154.1 440ZM2154.27 429.734H2168.07V433.544H2154.27V429.734ZM2176.79 440V413.818H2181.53V436.024H2193.06V440H2176.79ZM2220.34 421.016C2220.22 419.899 2219.72 419.03 2218.83 418.408C2217.95 417.786 2216.81 417.474 2215.4 417.474C2214.42 417.474 2213.57 417.624 2212.86 417.922C2212.15 418.22 2211.61 418.625 2211.24 419.136C2210.86 419.648 2210.67 420.232 2210.66 420.888C2210.66 421.433 2210.78 421.906 2211.03 422.307C2211.29 422.707 2211.63 423.048 2212.07 423.33C2212.5 423.602 2212.98 423.832 2213.51 424.02C2214.04 424.207 2214.57 424.365 2215.11 424.493L2217.56 425.107C2218.55 425.337 2219.5 425.648 2220.42 426.04C2221.34 426.432 2222.16 426.926 2222.88 427.523C2223.62 428.119 2224.19 428.839 2224.62 429.683C2225.05 430.527 2225.26 431.516 2225.26 432.649C2225.26 434.183 2224.87 435.534 2224.08 436.702C2223.3 437.861 2222.17 438.768 2220.68 439.425C2219.21 440.072 2217.42 440.396 2215.33 440.396C2213.29 440.396 2211.52 440.081 2210.02 439.45C2208.53 438.82 2207.36 437.899 2206.52 436.689C2205.68 435.479 2205.23 434.004 2205.16 432.266H2209.83C2209.9 433.178 2210.18 433.936 2210.67 434.541C2211.17 435.146 2211.81 435.598 2212.6 435.896C2213.41 436.195 2214.3 436.344 2215.29 436.344C2216.32 436.344 2217.22 436.19 2218 435.884C2218.78 435.568 2219.4 435.134 2219.84 434.58C2220.28 434.017 2220.51 433.361 2220.52 432.611C2220.51 431.929 2220.31 431.366 2219.92 430.923C2219.52 430.472 2218.97 430.097 2218.27 429.798C2217.57 429.491 2216.75 429.219 2215.81 428.98L2212.83 428.213C2210.68 427.659 2208.97 426.82 2207.72 425.695C2206.48 424.561 2205.85 423.057 2205.85 421.182C2205.85 419.639 2206.27 418.288 2207.11 417.129C2207.95 415.97 2209.1 415.071 2210.55 414.432C2211.99 413.784 2213.64 413.46 2215.47 413.46C2217.33 413.46 2218.95 413.784 2220.35 414.432C2221.76 415.071 2222.86 415.962 2223.66 417.104C2224.46 418.237 2224.88 419.541 2224.9 421.016H2220.34ZM2251.9 422.652H2247.12C2246.98 421.868 2246.73 421.173 2246.36 420.568C2246 419.955 2245.54 419.435 2245 419.009C2244.45 418.582 2243.83 418.263 2243.13 418.05C2242.44 417.828 2241.69 417.717 2240.89 417.717C2239.47 417.717 2238.21 418.075 2237.11 418.791C2236.01 419.499 2235.15 420.538 2234.53 421.911C2233.9 423.274 2233.59 424.94 2233.59 426.909C2233.59 428.912 2233.9 430.599 2234.53 431.972C2235.16 433.335 2236.02 434.366 2237.11 435.065C2238.21 435.756 2239.46 436.101 2240.88 436.101C2241.66 436.101 2242.4 435.999 2243.08 435.794C2243.77 435.581 2244.39 435.27 2244.93 434.861C2245.49 434.452 2245.95 433.949 2246.33 433.352C2246.71 432.756 2246.97 432.074 2247.12 431.307L2251.9 431.332C2251.72 432.577 2251.33 433.744 2250.74 434.835C2250.15 435.926 2249.38 436.889 2248.42 437.724C2247.47 438.551 2246.35 439.199 2245.07 439.668C2243.79 440.128 2242.38 440.358 2240.82 440.358C2238.51 440.358 2236.46 439.825 2234.65 438.76C2232.85 437.695 2231.42 436.156 2230.38 434.145C2229.34 432.134 2228.82 429.722 2228.82 426.909C2228.82 424.088 2229.35 421.676 2230.4 419.673C2231.44 417.662 2232.87 416.124 2234.68 415.058C2236.49 413.993 2238.53 413.46 2240.82 413.46C2242.27 413.46 2243.63 413.665 2244.88 414.074C2246.13 414.483 2247.25 415.084 2248.23 415.876C2249.21 416.661 2250.02 417.624 2250.65 418.766C2251.29 419.899 2251.7 421.195 2251.9 422.652ZM2279.64 426.909C2279.64 429.73 2279.11 432.146 2278.05 434.158C2277 436.161 2275.57 437.695 2273.76 438.76C2271.95 439.825 2269.9 440.358 2267.61 440.358C2265.31 440.358 2263.26 439.825 2261.45 438.76C2259.64 437.686 2258.21 436.148 2257.15 434.145C2256.1 432.134 2255.58 429.722 2255.58 426.909C2255.58 424.088 2256.1 421.676 2257.15 419.673C2258.21 417.662 2259.64 416.124 2261.45 415.058C2263.26 413.993 2265.31 413.46 2267.61 413.46C2269.9 413.46 2271.95 413.993 2273.76 415.058C2275.57 416.124 2277 417.662 2278.05 419.673C2279.11 421.676 2279.64 424.088 2279.64 426.909ZM2274.87 426.909C2274.87 424.923 2274.56 423.249 2273.94 421.885C2273.32 420.513 2272.47 419.477 2271.38 418.778C2270.29 418.071 2269.03 417.717 2267.61 417.717C2266.18 417.717 2264.93 418.071 2263.84 418.778C2262.75 419.477 2261.89 420.513 2261.27 421.885C2260.65 423.249 2260.35 424.923 2260.35 426.909C2260.35 428.895 2260.65 430.574 2261.27 431.946C2261.89 433.31 2262.75 434.345 2263.84 435.053C2264.93 435.751 2266.18 436.101 2267.61 436.101C2269.03 436.101 2270.29 435.751 2271.38 435.053C2272.47 434.345 2273.32 433.31 2273.94 431.946C2274.56 430.574 2274.87 428.895 2274.87 426.909ZM2284.12 440V413.818H2293.94C2295.95 413.818 2297.64 414.168 2299 414.866C2300.37 415.565 2301.41 416.545 2302.11 417.807C2302.82 419.06 2303.17 420.521 2303.17 422.192C2303.17 423.871 2302.81 425.328 2302.1 426.564C2301.39 427.791 2300.34 428.741 2298.96 429.415C2297.58 430.08 2295.89 430.412 2293.88 430.412H2286.88V426.474H2293.24C2294.41 426.474 2295.38 426.312 2296.13 425.989C2296.88 425.656 2297.43 425.175 2297.79 424.544C2298.15 423.905 2298.34 423.121 2298.34 422.192C2298.34 421.263 2298.15 420.47 2297.79 419.814C2297.42 419.149 2296.86 418.646 2296.11 418.305C2295.36 417.956 2294.4 417.781 2293.21 417.781H2288.86V440H2284.12ZM2297.65 428.136L2304.13 440H2298.84L2292.47 428.136H2297.65ZM2307.54 440V413.818H2324.56V417.794H2312.28V424.902H2323.68V428.878H2312.28V436.024H2324.67V440H2307.54ZM2332.05 436.855C2331.27 436.855 2330.61 436.582 2330.05 436.037C2329.5 435.483 2329.23 434.818 2329.24 434.043C2329.23 433.276 2329.5 432.619 2330.05 432.074C2330.61 431.528 2331.27 431.256 2332.05 431.256C2332.8 431.256 2333.45 431.528 2334 432.074C2334.57 432.619 2334.85 433.276 2334.86 434.043C2334.85 434.562 2334.72 435.036 2334.45 435.462C2334.2 435.888 2333.86 436.229 2333.43 436.484C2333.01 436.732 2332.55 436.855 2332.05 436.855ZM2332.05 423.879C2331.27 423.879 2330.61 423.607 2330.05 423.061C2329.5 422.507 2329.23 421.842 2329.24 421.067C2329.23 420.3 2329.5 419.643 2330.05 419.098C2330.61 418.544 2331.27 418.267 2332.05 418.267C2332.8 418.267 2333.45 418.544 2334 419.098C2334.57 419.643 2334.85 420.3 2334.86 421.067C2334.85 421.578 2334.72 422.047 2334.45 422.473C2334.2 422.899 2333.86 423.24 2333.43 423.496C2333.01 423.751 2332.55 423.879 2332.05 423.879ZM2361.67 413.818L2367.43 423.406H2367.64L2373.43 413.818H2378.84L2370.77 426.909L2378.96 440H2373.47L2367.64 430.476H2367.43L2361.6 440H2356.13L2364.4 426.909L2356.23 413.818H2361.67ZM2386.52 413.818L2392.29 423.406H2392.49L2398.28 413.818H2403.69L2395.62 426.909L2403.82 440H2398.32L2392.49 430.476H2392.29L2386.46 440H2380.99L2389.26 426.909L2381.09 413.818H2386.52Z" fill="black"/>
<path d="M2146.08 587V560.818H2155.9C2157.91 560.818 2159.6 561.193 2160.96 561.943C2162.34 562.693 2163.37 563.724 2164.07 565.037C2164.78 566.341 2165.13 567.824 2165.13 569.486C2165.13 571.165 2164.78 572.656 2164.07 573.96C2163.36 575.264 2162.32 576.291 2160.94 577.041C2159.56 577.783 2157.86 578.153 2155.84 578.153H2149.33V574.254H2155.2C2156.37 574.254 2157.34 574.05 2158.09 573.641C2158.84 573.232 2159.39 572.669 2159.75 571.953C2160.12 571.237 2160.3 570.415 2160.3 569.486C2160.3 568.557 2160.12 567.739 2159.75 567.031C2159.39 566.324 2158.83 565.774 2158.07 565.382C2157.32 564.982 2156.36 564.781 2155.17 564.781H2150.83V587H2146.08ZM2169.25 587V560.818H2173.99V583.024H2185.52V587H2169.25ZM2193.99 587H2188.93L2198.14 560.818H2204L2213.23 587H2208.17L2201.17 566.188H2200.97L2193.99 587ZM2194.15 576.734H2207.96V580.544H2194.15V576.734ZM2212.21 560.818H2217.57L2223.98 572.401H2224.23L2230.64 560.818H2235.99L2226.47 577.233V587H2221.74V577.233L2212.21 560.818ZM2251.64 587H2246.58L2255.8 560.818H2261.65L2270.88 587H2265.82L2258.83 566.188H2258.62L2251.64 587ZM2251.81 576.734H2265.62V580.544H2251.81V576.734ZM2290.64 569.179C2290.43 568.489 2290.13 567.871 2289.76 567.325C2289.39 566.771 2288.95 566.298 2288.43 565.906C2287.92 565.514 2287.33 565.22 2286.67 565.024C2286 564.82 2285.28 564.717 2284.49 564.717C2283.09 564.717 2281.83 565.071 2280.73 565.778C2279.63 566.486 2278.77 567.526 2278.14 568.898C2277.52 570.261 2277.21 571.923 2277.21 573.884C2277.21 575.861 2277.52 577.536 2278.14 578.908C2278.76 580.28 2279.63 581.324 2280.73 582.04C2281.84 582.747 2283.13 583.101 2284.59 583.101C2285.92 583.101 2287.07 582.845 2288.05 582.334C2289.03 581.822 2289.78 581.098 2290.31 580.161C2290.84 579.214 2291.1 578.107 2291.1 576.837L2292.18 577.003H2285.07V573.295H2295.69V576.44C2295.69 578.682 2295.21 580.621 2294.26 582.257C2293.31 583.893 2291.99 585.155 2290.32 586.041C2288.65 586.919 2286.73 587.358 2284.57 587.358C2282.16 587.358 2280.04 586.817 2278.22 585.734C2276.4 584.643 2274.98 583.097 2273.96 581.094C2272.94 579.082 2272.44 576.696 2272.44 573.935C2272.44 571.821 2272.74 569.933 2273.33 568.271C2273.94 566.609 2274.78 565.199 2275.86 564.04C2276.95 562.872 2278.22 561.986 2279.67 561.381C2281.13 560.767 2282.72 560.46 2284.43 560.46C2285.88 560.46 2287.23 560.673 2288.48 561.099C2289.73 561.517 2290.85 562.114 2291.82 562.889C2292.8 563.665 2293.6 564.585 2294.23 565.651C2294.86 566.716 2295.28 567.892 2295.47 569.179H2290.64ZM2302.83 587H2297.77L2306.99 560.818H2312.84L2322.07 587H2317.01L2310.02 566.188H2309.81L2302.83 587ZM2303 576.734H2316.8V580.544H2303V576.734ZM2330.26 560.818V587H2325.52V560.818H2330.26ZM2356.91 560.818V587H2352.7L2340.36 569.166H2340.14V587H2335.4V560.818H2339.64L2351.97 578.665H2352.2V560.818H2356.91Z" fill="black"/>
<path d="M2424.85 69V54.4545H2427.48V66.7912H2433.89V69H2424.85ZM2438.81 54.4545V69H2436.17V54.4545H2438.81ZM2443.61 54.4545L2447.39 65.9034H2447.54L2451.32 54.4545H2454.22L2449.09 69H2445.84L2440.72 54.4545H2443.61ZM2456.13 69V54.4545H2465.6V56.6634H2458.77V60.6122H2465.11V62.821H2458.77V66.7912H2465.65V69H2456.13ZM2476.19 58.4531C2476.12 57.8329 2475.84 57.3499 2475.35 57.0043C2474.86 56.6586 2474.23 56.4858 2473.45 56.4858C2472.9 56.4858 2472.43 56.5687 2472.03 56.7344C2471.64 56.9001 2471.34 57.125 2471.13 57.4091C2470.92 57.6932 2470.82 58.0175 2470.81 58.3821C2470.81 58.6851 2470.88 58.9479 2471.02 59.1705C2471.16 59.393 2471.35 59.5824 2471.59 59.7386C2471.83 59.8902 2472.1 60.018 2472.4 60.1222C2472.69 60.2263 2472.98 60.3139 2473.28 60.3849L2474.65 60.7259C2475.2 60.8537 2475.72 61.0265 2476.23 61.2443C2476.74 61.4621 2477.2 61.7367 2477.6 62.0682C2478.01 62.3996 2478.33 62.7997 2478.57 63.2685C2478.8 63.7372 2478.92 64.2865 2478.92 64.9162C2478.92 65.7685 2478.7 66.5189 2478.27 67.1676C2477.83 67.8116 2477.2 68.3158 2476.38 68.6804C2475.56 69.0402 2474.57 69.2202 2473.4 69.2202C2472.27 69.2202 2471.29 69.045 2470.46 68.6946C2469.63 68.3442 2468.98 67.8329 2468.51 67.1605C2468.05 66.4882 2467.8 65.669 2467.76 64.7031H2470.35C2470.39 65.2098 2470.54 65.6312 2470.82 65.9673C2471.09 66.3035 2471.45 66.5545 2471.89 66.7202C2472.34 66.8859 2472.83 66.9688 2473.38 66.9688C2473.96 66.9688 2474.46 66.8835 2474.89 66.7131C2475.32 66.5379 2475.66 66.2964 2475.91 65.9886C2476.16 65.6761 2476.28 65.3116 2476.29 64.8949C2476.28 64.5161 2476.17 64.2036 2475.95 63.9574C2475.74 63.7064 2475.43 63.4981 2475.04 63.3324C2474.65 63.1619 2474.19 63.0104 2473.67 62.8778L2472.02 62.4517C2470.82 62.1439 2469.87 61.6776 2469.18 61.0526C2468.49 60.4228 2468.14 59.5871 2468.14 58.5455C2468.14 57.6884 2468.37 56.938 2468.84 56.294C2469.31 55.6501 2469.94 55.1506 2470.75 54.7955C2471.55 54.4356 2472.46 54.2557 2473.48 54.2557C2474.51 54.2557 2475.42 54.4356 2476.2 54.7955C2476.98 55.1506 2477.59 55.6454 2478.03 56.2798C2478.48 56.9096 2478.71 57.634 2478.72 58.4531H2476.19Z" fill="black"/>
<path d="M2427.05 100.455L2430.25 105.781H2430.36L2433.58 100.455H2436.59L2432.1 107.727L2436.66 115H2433.6L2430.36 109.709H2430.25L2427.01 115H2423.97L2428.57 107.727L2424.03 100.455H2427.05Z" fill="black"/>
<path d="M2482.05 100.455L2485.25 105.781H2485.36L2488.58 100.455H2491.59L2487.1 107.727L2491.66 115H2488.6L2485.36 109.709H2485.25L2482.01 115H2478.97L2483.57 107.727L2479.03 100.455H2482.05Z" fill="black"/>
<path d="M2530.05 100.455L2533.25 105.781H2533.36L2536.58 100.455H2539.59L2535.1 107.727L2539.66 115H2536.6L2533.36 109.709H2533.25L2530.01 115H2526.97L2531.57 107.727L2527.03 100.455H2530.05Z" fill="black"/>
<path d="M1892.54 63.4531C1892.47 62.8329 1892.19 62.3499 1891.7 62.0043C1891.21 61.6586 1890.58 61.4858 1889.79 61.4858C1889.25 61.4858 1888.77 61.5687 1888.38 61.7344C1887.99 61.9001 1887.69 62.125 1887.48 62.4091C1887.27 62.6932 1887.16 63.0175 1887.16 63.3821C1887.16 63.6851 1887.23 63.9479 1887.37 64.1705C1887.51 64.393 1887.7 64.5824 1887.94 64.7386C1888.18 64.8902 1888.45 65.018 1888.74 65.1222C1889.04 65.2263 1889.33 65.3139 1889.63 65.3849L1891 65.7259C1891.54 65.8537 1892.07 66.0265 1892.58 66.2443C1893.09 66.4621 1893.55 66.7367 1893.95 67.0682C1894.36 67.3996 1894.68 67.7997 1894.92 68.2685C1895.15 68.7372 1895.27 69.2865 1895.27 69.9162C1895.27 70.7685 1895.05 71.5189 1894.62 72.1676C1894.18 72.8116 1893.55 73.3158 1892.73 73.6804C1891.91 74.0402 1890.92 74.2202 1889.75 74.2202C1888.62 74.2202 1887.64 74.045 1886.8 73.6946C1885.98 73.3442 1885.33 72.8329 1884.86 72.1605C1884.39 71.4882 1884.14 70.669 1884.11 69.7031H1886.7C1886.74 70.2098 1886.89 70.6312 1887.17 70.9673C1887.44 71.3035 1887.8 71.5545 1888.24 71.7202C1888.68 71.8859 1889.18 71.9688 1889.73 71.9688C1890.3 71.9688 1890.81 71.8835 1891.24 71.7131C1891.67 71.5379 1892.01 71.2964 1892.26 70.9886C1892.51 70.6761 1892.63 70.3116 1892.64 69.8949C1892.63 69.5161 1892.52 69.2036 1892.3 68.9574C1892.08 68.7064 1891.78 68.4981 1891.39 68.3324C1891 68.1619 1890.54 68.0104 1890.02 67.8778L1888.37 67.4517C1887.17 67.1439 1886.22 66.6776 1885.53 66.0526C1884.84 65.4228 1884.49 64.5871 1884.49 63.5455C1884.49 62.6884 1884.72 61.938 1885.19 61.294C1885.65 60.6501 1886.29 60.1506 1887.1 59.7955C1887.9 59.4356 1888.81 59.2557 1889.83 59.2557C1890.86 59.2557 1891.77 59.4356 1892.54 59.7955C1893.32 60.1506 1893.94 60.6454 1894.38 61.2798C1894.83 61.9096 1895.06 62.634 1895.07 63.4531H1892.54ZM1910.07 64.3622H1907.41C1907.34 63.9266 1907.2 63.5407 1906.99 63.2045C1906.79 62.8636 1906.54 62.5748 1906.23 62.3381C1905.93 62.1013 1905.59 61.9238 1905.2 61.8054C1904.81 61.6823 1904.4 61.6207 1903.95 61.6207C1903.16 61.6207 1902.46 61.8196 1901.85 62.2173C1901.24 62.6103 1900.76 63.188 1900.42 63.9503C1900.07 64.7079 1899.9 65.6335 1899.9 66.7273C1899.9 67.84 1900.07 68.7775 1900.42 69.5398C1900.77 70.2973 1901.25 70.8703 1901.85 71.2585C1902.46 71.642 1903.16 71.8338 1903.95 71.8338C1904.38 71.8338 1904.79 71.777 1905.17 71.6634C1905.55 71.545 1905.9 71.3722 1906.2 71.1449C1906.51 70.9176 1906.77 70.6383 1906.97 70.3068C1907.19 69.9754 1907.33 69.5966 1907.41 69.1705L1910.07 69.1847C1909.97 69.8759 1909.76 70.5246 1909.42 71.1307C1909.1 71.7367 1908.67 72.2718 1908.14 72.7358C1907.61 73.1951 1906.99 73.5549 1906.28 73.8153C1905.57 74.071 1904.78 74.1989 1903.91 74.1989C1902.63 74.1989 1901.49 73.9029 1900.49 73.3111C1899.49 72.7192 1898.69 71.8646 1898.12 70.7472C1897.54 69.6297 1897.25 68.2898 1897.25 66.7273C1897.25 65.16 1897.54 63.8201 1898.12 62.7074C1898.71 61.59 1899.5 60.7353 1900.5 60.1435C1901.51 59.5516 1902.64 59.2557 1903.91 59.2557C1904.72 59.2557 1905.47 59.3693 1906.17 59.5966C1906.87 59.8239 1907.49 60.1577 1908.03 60.598C1908.58 61.0336 1909.02 61.5687 1909.37 62.2031C1909.73 62.8329 1909.96 63.5526 1910.07 64.3622ZM1925.48 66.7273C1925.48 68.2945 1925.19 69.6368 1924.6 70.7543C1924.02 71.867 1923.22 72.7192 1922.21 73.3111C1921.21 73.9029 1920.07 74.1989 1918.8 74.1989C1917.52 74.1989 1916.38 73.9029 1915.37 73.3111C1914.37 72.7145 1913.57 71.8598 1912.99 70.7472C1912.4 69.6297 1912.11 68.2898 1912.11 66.7273C1912.11 65.16 1912.4 63.8201 1912.99 62.7074C1913.57 61.59 1914.37 60.7353 1915.37 60.1435C1916.38 59.5516 1917.52 59.2557 1918.8 59.2557C1920.07 59.2557 1921.21 59.5516 1922.21 60.1435C1923.22 60.7353 1924.02 61.59 1924.6 62.7074C1925.19 63.8201 1925.48 65.16 1925.48 66.7273ZM1922.83 66.7273C1922.83 65.6241 1922.66 64.6937 1922.31 63.9361C1921.97 63.1738 1921.5 62.5985 1920.89 62.2102C1920.29 61.8172 1919.59 61.6207 1918.8 61.6207C1918.01 61.6207 1917.31 61.8172 1916.7 62.2102C1916.1 62.5985 1915.62 63.1738 1915.27 63.9361C1914.93 64.6937 1914.76 65.6241 1914.76 66.7273C1914.76 67.8305 1914.93 68.7633 1915.27 69.5256C1915.62 70.2831 1916.1 70.8584 1916.7 71.2514C1917.31 71.6397 1918.01 71.8338 1918.8 71.8338C1919.59 71.8338 1920.29 71.6397 1920.89 71.2514C1921.5 70.8584 1921.97 70.2831 1922.31 69.5256C1922.66 68.7633 1922.83 67.8305 1922.83 66.7273ZM1927.97 74V59.4545H1933.43C1934.54 59.4545 1935.48 59.6487 1936.24 60.0369C1937 60.4252 1937.58 60.9697 1937.96 61.6705C1938.36 62.3665 1938.55 63.1785 1938.55 64.1065C1938.55 65.0393 1938.35 65.849 1937.96 66.5355C1937.56 67.2173 1936.98 67.7453 1936.22 68.1193C1935.45 68.4886 1934.51 68.6733 1933.39 68.6733H1929.51V66.4858H1933.04C1933.69 66.4858 1934.22 66.3958 1934.64 66.2159C1935.06 66.0312 1935.36 65.7637 1935.56 65.4134C1935.77 65.0582 1935.87 64.6226 1935.87 64.1065C1935.87 63.5904 1935.77 63.1501 1935.56 62.7855C1935.36 62.4162 1935.05 62.1368 1934.63 61.9474C1934.22 61.7533 1933.68 61.6562 1933.02 61.6562H1930.61V74H1927.97ZM1935.49 67.4091L1939.09 74H1936.15L1932.61 67.4091H1935.49ZM1940.98 74V59.4545H1950.44V61.6634H1943.61V65.6122H1949.95V67.821H1943.61V71.7912H1950.5V74H1940.98ZM1954.6 72.2528C1954.17 72.2528 1953.8 72.1013 1953.49 71.7983C1953.18 71.4905 1953.03 71.1212 1953.04 70.6903C1953.03 70.2642 1953.18 69.8996 1953.49 69.5966C1953.8 69.2936 1954.17 69.142 1954.6 69.142C1955.01 69.142 1955.38 69.2936 1955.68 69.5966C1956 69.8996 1956.16 70.2642 1956.16 70.6903C1956.16 70.9792 1956.08 71.242 1955.93 71.4787C1955.79 71.7154 1955.6 71.9048 1955.36 72.0469C1955.13 72.1842 1954.88 72.2528 1954.6 72.2528ZM1954.6 65.044C1954.17 65.044 1953.8 64.8925 1953.49 64.5895C1953.18 64.2817 1953.03 63.9124 1953.04 63.4815C1953.03 63.0554 1953.18 62.6908 1953.49 62.3878C1953.8 62.08 1954.17 61.9261 1954.6 61.9261C1955.01 61.9261 1955.38 62.08 1955.68 62.3878C1956 62.6908 1956.16 63.0554 1956.16 63.4815C1956.16 63.7656 1956.08 64.026 1955.93 64.2628C1955.79 64.4995 1955.6 64.6889 1955.36 64.831C1955.13 64.973 1954.88 65.044 1954.6 65.044ZM1886.83 107.455L1890.04 112.781H1890.15L1893.37 107.455H1896.37L1891.89 114.727L1896.44 122H1893.39L1890.15 116.709H1890.04L1886.8 122H1883.76L1888.35 114.727L1883.81 107.455H1886.83ZM1900.64 107.455L1903.84 112.781H1903.96L1907.18 107.455H1910.18L1905.7 114.727L1910.25 122H1907.2L1903.96 116.709H1903.84L1900.61 122H1897.57L1902.16 114.727L1897.62 107.455H1900.64Z" fill="black"/>
<rect x="893.5" y="0.5" width="872" height="831" fill="white"/>
<rect x="893.5" y="0.5" width="872" height="831" stroke="black"/>
<path d="M1033.34 63.4531C1033.27 62.8329 1032.99 62.3499 1032.5 62.0043C1032.01 61.6586 1031.38 61.4858 1030.6 61.4858C1030.05 61.4858 1029.58 61.5687 1029.18 61.7344C1028.79 61.9001 1028.49 62.125 1028.28 62.4091C1028.07 62.6932 1027.97 63.0175 1027.96 63.3821C1027.96 63.6851 1028.03 63.9479 1028.17 64.1705C1028.31 64.393 1028.5 64.5824 1028.74 64.7386C1028.99 64.8902 1029.25 65.018 1029.55 65.1222C1029.84 65.2263 1030.14 65.3139 1030.43 65.3849L1031.8 65.7259C1032.35 65.8537 1032.88 66.0265 1033.38 66.2443C1033.89 66.4621 1034.35 66.7367 1034.75 67.0682C1035.16 67.3996 1035.48 67.7997 1035.72 68.2685C1035.96 68.7372 1036.07 69.2865 1036.07 69.9162C1036.07 70.7685 1035.86 71.5189 1035.42 72.1676C1034.98 72.8116 1034.36 73.3158 1033.53 73.6804C1032.71 74.0402 1031.72 74.2202 1030.56 74.2202C1029.42 74.2202 1028.44 74.045 1027.61 73.6946C1026.78 73.3442 1026.13 72.8329 1025.66 72.1605C1025.2 71.4882 1024.95 70.669 1024.91 69.7031H1027.5C1027.54 70.2098 1027.7 70.6312 1027.97 70.9673C1028.24 71.3035 1028.6 71.5545 1029.04 71.7202C1029.49 71.8859 1029.98 71.9688 1030.53 71.9688C1031.11 71.9688 1031.61 71.8835 1032.04 71.7131C1032.48 71.5379 1032.82 71.2964 1033.06 70.9886C1033.31 70.6761 1033.43 70.3116 1033.44 69.8949C1033.43 69.5161 1033.32 69.2036 1033.11 68.9574C1032.89 68.7064 1032.58 68.4981 1032.19 68.3324C1031.8 68.1619 1031.35 68.0104 1030.83 67.8778L1029.17 67.4517C1027.97 67.1439 1027.03 66.6776 1026.33 66.0526C1025.64 65.4228 1025.29 64.5871 1025.29 63.5455C1025.29 62.6884 1025.52 61.938 1025.99 61.294C1026.46 60.6501 1027.09 60.1506 1027.9 59.7955C1028.7 59.4356 1029.62 59.2557 1030.63 59.2557C1031.67 59.2557 1032.57 59.4356 1033.35 59.7955C1034.13 60.1506 1034.74 60.6454 1035.19 61.2798C1035.63 61.9096 1035.86 62.634 1035.88 63.4531H1033.34ZM1050.87 64.3622H1048.22C1048.14 63.9266 1048 63.5407 1047.8 63.2045C1047.59 62.8636 1047.34 62.5748 1047.04 62.3381C1046.73 62.1013 1046.39 61.9238 1046 61.8054C1045.62 61.6823 1045.2 61.6207 1044.76 61.6207C1043.97 61.6207 1043.27 61.8196 1042.66 62.2173C1042.05 62.6103 1041.57 63.188 1041.22 63.9503C1040.88 64.7079 1040.7 65.6335 1040.7 66.7273C1040.7 67.84 1040.88 68.7775 1041.22 69.5398C1041.57 70.2973 1042.05 70.8703 1042.66 71.2585C1043.27 71.642 1043.97 71.8338 1044.75 71.8338C1045.19 71.8338 1045.59 71.777 1045.97 71.6634C1046.36 71.545 1046.7 71.3722 1047 71.1449C1047.31 70.9176 1047.57 70.6383 1047.78 70.3068C1047.99 69.9754 1048.14 69.5966 1048.22 69.1705L1050.87 69.1847C1050.77 69.8759 1050.56 70.5246 1050.23 71.1307C1049.9 71.7367 1049.47 72.2718 1048.94 72.7358C1048.41 73.1951 1047.79 73.5549 1047.08 73.8153C1046.37 74.071 1045.58 74.1989 1044.72 74.1989C1043.44 74.1989 1042.3 73.9029 1041.29 73.3111C1040.29 72.7192 1039.5 71.8646 1038.92 70.7472C1038.34 69.6297 1038.05 68.2898 1038.05 66.7273C1038.05 65.16 1038.34 63.8201 1038.93 62.7074C1039.51 61.59 1040.3 60.7353 1041.31 60.1435C1042.31 59.5516 1043.45 59.2557 1044.72 59.2557C1045.53 59.2557 1046.28 59.3693 1046.97 59.5966C1047.67 59.8239 1048.29 60.1577 1048.83 60.598C1049.38 61.0336 1049.83 61.5687 1050.18 62.2031C1050.53 62.8329 1050.76 63.5526 1050.87 64.3622ZM1066.28 66.7273C1066.28 68.2945 1065.99 69.6368 1065.4 70.7543C1064.82 71.867 1064.02 72.7192 1063.02 73.3111C1062.01 73.9029 1060.87 74.1989 1059.6 74.1989C1058.33 74.1989 1057.19 73.9029 1056.18 73.3111C1055.17 72.7145 1054.38 71.8598 1053.79 70.7472C1053.21 69.6297 1052.92 68.2898 1052.92 66.7273C1052.92 65.16 1053.21 63.8201 1053.79 62.7074C1054.38 61.59 1055.17 60.7353 1056.18 60.1435C1057.19 59.5516 1058.33 59.2557 1059.6 59.2557C1060.87 59.2557 1062.01 59.5516 1063.02 60.1435C1064.02 60.7353 1064.82 61.59 1065.4 62.7074C1065.99 63.8201 1066.28 65.16 1066.28 66.7273ZM1063.63 66.7273C1063.63 65.6241 1063.46 64.6937 1063.12 63.9361C1062.77 63.1738 1062.3 62.5985 1061.7 62.2102C1061.09 61.8172 1060.39 61.6207 1059.6 61.6207C1058.81 61.6207 1058.11 61.8172 1057.5 62.2102C1056.9 62.5985 1056.42 63.1738 1056.08 63.9361C1055.74 64.6937 1055.57 65.6241 1055.57 66.7273C1055.57 67.8305 1055.74 68.7633 1056.08 69.5256C1056.42 70.2831 1056.9 70.8584 1057.5 71.2514C1058.11 71.6397 1058.81 71.8338 1059.6 71.8338C1060.39 71.8338 1061.09 71.6397 1061.7 71.2514C1062.3 70.8584 1062.77 70.2831 1063.12 69.5256C1063.46 68.7633 1063.63 67.8305 1063.63 66.7273ZM1068.77 74V59.4545H1074.23C1075.35 59.4545 1076.28 59.6487 1077.04 60.0369C1077.8 60.4252 1078.38 60.9697 1078.77 61.6705C1079.16 62.3665 1079.36 63.1785 1079.36 64.1065C1079.36 65.0393 1079.16 65.849 1078.76 66.5355C1078.37 67.2173 1077.79 67.7453 1077.02 68.1193C1076.25 68.4886 1075.31 68.6733 1074.19 68.6733H1070.31V66.4858H1073.84C1074.49 66.4858 1075.03 66.3958 1075.44 66.2159C1075.86 66.0312 1076.17 65.7637 1076.37 65.4134C1076.57 65.0582 1076.67 64.6226 1076.67 64.1065C1076.67 63.5904 1076.57 63.1501 1076.37 62.7855C1076.16 62.4162 1075.85 62.1368 1075.44 61.9474C1075.02 61.7533 1074.48 61.6562 1073.82 61.6562H1071.41V74H1068.77ZM1076.29 67.4091L1079.89 74H1076.95L1073.41 67.4091H1076.29ZM1081.78 74V59.4545H1091.24V61.6634H1084.42V65.6122H1090.75V67.821H1084.42V71.7912H1091.3V74H1081.78ZM1095.4 72.2528C1094.97 72.2528 1094.6 72.1013 1094.29 71.7983C1093.99 71.4905 1093.83 71.1212 1093.84 70.6903C1093.83 70.2642 1093.99 69.8996 1094.29 69.5966C1094.6 69.2936 1094.97 69.142 1095.4 69.142C1095.82 69.142 1096.18 69.2936 1096.49 69.5966C1096.8 69.8996 1096.96 70.2642 1096.96 70.6903C1096.96 70.9792 1096.88 71.242 1096.74 71.4787C1096.59 71.7154 1096.4 71.9048 1096.17 72.0469C1095.94 72.1842 1095.68 72.2528 1095.4 72.2528ZM1095.4 65.044C1094.97 65.044 1094.6 64.8925 1094.29 64.5895C1093.99 64.2817 1093.83 63.9124 1093.84 63.4815C1093.83 63.0554 1093.99 62.6908 1094.29 62.3878C1094.6 62.08 1094.97 61.9261 1095.4 61.9261C1095.82 61.9261 1096.18 62.08 1096.49 62.3878C1096.8 62.6908 1096.96 63.0554 1096.96 63.4815C1096.96 63.7656 1096.88 64.026 1096.74 64.2628C1096.59 64.4995 1096.4 64.6889 1096.17 64.831C1095.94 64.973 1095.68 65.044 1095.4 65.044ZM1035.63 122.277C1034.46 122.277 1033.46 121.981 1032.62 121.389C1031.79 120.793 1031.14 119.933 1030.69 118.811C1030.25 117.684 1030.03 116.328 1030.03 114.741C1030.03 113.155 1030.26 111.806 1030.7 110.693C1031.15 109.576 1031.79 108.723 1032.63 108.136C1033.46 107.549 1034.47 107.256 1035.63 107.256C1036.79 107.256 1037.8 107.549 1038.63 108.136C1039.47 108.723 1040.11 109.576 1040.56 110.693C1041.01 111.811 1041.23 113.16 1041.23 114.741C1041.23 116.332 1041.01 117.691 1040.56 118.818C1040.11 119.94 1039.47 120.797 1038.63 121.389C1037.8 121.981 1036.8 122.277 1035.63 122.277ZM1035.63 120.054C1036.54 120.054 1037.26 119.607 1037.78 118.712C1038.31 117.812 1038.58 116.489 1038.58 114.741C1038.58 113.586 1038.46 112.616 1038.22 111.83C1037.97 111.044 1037.63 110.452 1037.19 110.054C1036.75 109.652 1036.23 109.45 1035.63 109.45C1034.73 109.45 1034.01 109.9 1033.49 110.8C1032.96 111.695 1032.69 113.009 1032.69 114.741C1032.68 115.902 1032.8 116.877 1033.04 117.668C1033.28 118.458 1033.62 119.055 1034.06 119.457C1034.5 119.855 1035.02 120.054 1035.63 120.054Z" fill="black"/>
<path d="M1565.61 69V54.4545H1568.24V66.7912H1574.65V69H1565.61ZM1579.57 54.4545V69H1576.94V54.4545H1579.57ZM1584.37 54.4545L1588.16 65.9034H1588.31L1592.08 54.4545H1594.98L1589.85 69H1586.6L1581.48 54.4545H1584.37ZM1596.9 69V54.4545H1606.36V56.6634H1599.53V60.6122H1605.87V62.821H1599.53V66.7912H1606.42V69H1596.9ZM1616.95 58.4531C1616.89 57.8329 1616.61 57.3499 1616.11 57.0043C1615.63 56.6586 1614.99 56.4858 1614.21 56.4858C1613.66 56.4858 1613.19 56.5687 1612.8 56.7344C1612.4 56.9001 1612.1 57.125 1611.89 57.4091C1611.69 57.6932 1611.58 58.0175 1611.57 58.3821C1611.57 58.6851 1611.64 58.9479 1611.78 59.1705C1611.92 59.393 1612.11 59.5824 1612.36 59.7386C1612.6 59.8902 1612.87 60.018 1613.16 60.1222C1613.45 60.2263 1613.75 60.3139 1614.05 60.3849L1615.41 60.7259C1615.96 60.8537 1616.49 61.0265 1616.99 61.2443C1617.51 61.4621 1617.96 61.7367 1618.36 62.0682C1618.77 62.3996 1619.09 62.7997 1619.33 63.2685C1619.57 63.7372 1619.69 64.2865 1619.69 64.9162C1619.69 65.7685 1619.47 66.5189 1619.03 67.1676C1618.6 67.8116 1617.97 68.3158 1617.14 68.6804C1616.32 69.0402 1615.33 69.2202 1614.17 69.2202C1613.04 69.2202 1612.05 69.045 1611.22 68.6946C1610.39 68.3442 1609.74 67.8329 1609.27 67.1605C1608.81 66.4882 1608.56 65.669 1608.52 64.7031H1611.11C1611.15 65.2098 1611.31 65.6312 1611.58 65.9673C1611.86 66.3035 1612.21 66.5545 1612.65 66.7202C1613.1 66.8859 1613.6 66.9688 1614.15 66.9688C1614.72 66.9688 1615.22 66.8835 1615.65 66.7131C1616.09 66.5379 1616.43 66.2964 1616.67 65.9886C1616.92 65.6761 1617.05 65.3116 1617.05 64.8949C1617.05 64.5161 1616.93 64.2036 1616.72 63.9574C1616.5 63.7064 1616.19 63.4981 1615.8 63.3324C1615.41 63.1619 1614.96 63.0104 1614.44 62.8778L1612.78 62.4517C1611.58 62.1439 1610.64 61.6776 1609.94 61.0526C1609.25 60.4228 1608.9 59.5871 1608.9 58.5455C1608.9 57.6884 1609.14 56.938 1609.6 56.294C1610.07 55.6501 1610.71 55.1506 1611.51 54.7955C1612.32 54.4356 1613.23 54.2557 1614.25 54.2557C1615.28 54.2557 1616.18 54.4356 1616.96 54.7955C1617.74 55.1506 1618.35 55.6454 1618.8 56.2798C1619.24 56.9096 1619.47 57.634 1619.49 58.4531H1616.95Z" fill="black"/>
<path d="M1567.81 100.455L1571.01 105.781H1571.13L1574.34 100.455H1577.35L1572.87 107.727L1577.42 115H1574.37L1571.13 109.709H1571.01L1567.78 115H1564.74L1569.33 107.727L1564.79 100.455H1567.81Z" fill="black"/>
<path d="M1622.81 100.455L1626.01 105.781H1626.13L1629.34 100.455H1632.35L1627.87 107.727L1632.42 115H1629.37L1626.13 109.709H1626.01L1622.78 115H1619.74L1624.33 107.727L1619.79 100.455H1622.81Z" fill="black"/>
<path d="M1670.81 100.455L1674.01 105.781H1674.13L1677.34 100.455H1680.35L1675.87 107.727L1680.42 115H1677.37L1674.13 109.709H1674.01L1670.78 115H1667.74L1672.33 107.727L1667.79 100.455H1670.81Z" fill="black"/>
<circle cx="1512.17" cy="317.424" r="52" fill="#D9D9D9"/>
<circle cx="1136.25" cy="459.424" r="52" fill="#D9D9D9"/>
<circle cx="1496.18" cy="563.424" r="52" fill="#D9D9D9"/>
<rect x="0.5" y="0.5" width="881" height="831" fill="white"/>
<rect x="0.5" y="0.5" width="881" height="831" stroke="black"/>
<path d="M69.0909 244V197.455H98.9091V204.523H77.5227V217.159H96.8636V224.227H77.5227V244H69.0909ZM106.591 244V197.455H124.045C127.621 197.455 130.621 198.076 133.045 199.318C135.485 200.561 137.326 202.303 138.568 204.545C139.826 206.773 140.455 209.371 140.455 212.341C140.455 215.326 139.818 217.917 138.545 220.114C137.288 222.295 135.432 223.985 132.977 225.182C130.523 226.364 127.508 226.955 123.932 226.955H111.5V219.955H122.795C124.886 219.955 126.598 219.667 127.932 219.091C129.265 218.5 130.25 217.644 130.886 216.523C131.538 215.386 131.864 213.992 131.864 212.341C131.864 210.689 131.538 209.28 130.886 208.114C130.235 206.932 129.242 206.038 127.909 205.432C126.576 204.811 124.856 204.5 122.75 204.5H115.023V244H106.591ZM130.636 222.909L142.159 244H132.75L121.432 222.909H130.636ZM177.557 197.455H185.989V227.864C185.989 231.197 185.201 234.129 183.625 236.659C182.064 239.189 179.867 241.167 177.034 242.591C174.201 244 170.89 244.705 167.102 244.705C163.299 244.705 159.981 244 157.148 242.591C154.314 241.167 152.117 239.189 150.557 236.659C148.996 234.129 148.216 231.197 148.216 227.864V197.455H156.648V227.159C156.648 229.098 157.072 230.826 157.92 232.341C158.784 233.856 159.996 235.045 161.557 235.909C163.117 236.758 164.966 237.182 167.102 237.182C169.239 237.182 171.087 236.758 172.648 235.909C174.223 235.045 175.436 233.856 176.284 232.341C177.133 230.826 177.557 229.098 177.557 227.159V197.455ZM203.585 197.455V244H195.153V197.455H203.585ZM210.67 204.523V197.455H247.807V204.523H233.42V244H225.057V204.523H210.67ZM296.136 210.25C295.924 208.265 295.03 206.72 293.455 205.614C291.894 204.508 289.864 203.955 287.364 203.955C285.606 203.955 284.098 204.22 282.841 204.75C281.583 205.28 280.621 206 279.955 206.909C279.288 207.818 278.947 208.856 278.932 210.023C278.932 210.992 279.152 211.833 279.591 212.545C280.045 213.258 280.659 213.864 281.432 214.364C282.205 214.848 283.061 215.258 284 215.591C284.939 215.924 285.886 216.205 286.841 216.432L291.205 217.523C292.962 217.932 294.652 218.485 296.273 219.182C297.909 219.879 299.371 220.758 300.659 221.818C301.962 222.879 302.992 224.159 303.75 225.659C304.508 227.159 304.886 228.917 304.886 230.932C304.886 233.659 304.189 236.061 302.795 238.136C301.402 240.197 299.386 241.811 296.75 242.977C294.129 244.129 290.955 244.705 287.227 244.705C283.606 244.705 280.462 244.144 277.795 243.023C275.144 241.902 273.068 240.265 271.568 238.114C270.083 235.962 269.28 233.341 269.159 230.25H277.455C277.576 231.871 278.076 233.22 278.955 234.295C279.833 235.371 280.977 236.174 282.386 236.705C283.811 237.235 285.402 237.5 287.159 237.5C288.992 237.5 290.598 237.227 291.977 236.682C293.371 236.121 294.462 235.348 295.25 234.364C296.038 233.364 296.439 232.197 296.455 230.864C296.439 229.652 296.083 228.652 295.386 227.864C294.689 227.061 293.712 226.394 292.455 225.864C291.212 225.318 289.758 224.833 288.091 224.409L282.795 223.045C278.962 222.061 275.932 220.568 273.705 218.568C271.492 216.553 270.386 213.879 270.386 210.545C270.386 207.803 271.129 205.402 272.614 203.341C274.114 201.28 276.152 199.682 278.727 198.545C281.303 197.394 284.22 196.818 287.477 196.818C290.78 196.818 293.674 197.394 296.159 198.545C298.659 199.682 300.621 201.265 302.045 203.295C303.47 205.311 304.205 207.629 304.25 210.25H296.136ZM312.403 244V197.455H320.835V236.932H341.335V244H312.403ZM357.085 197.455V244H348.653V197.455H357.085ZM406.057 213.159H397.557C397.314 211.765 396.867 210.53 396.216 209.455C395.564 208.364 394.754 207.439 393.784 206.682C392.814 205.924 391.708 205.356 390.466 204.977C389.239 204.583 387.913 204.386 386.489 204.386C383.958 204.386 381.716 205.023 379.761 206.295C377.807 207.553 376.277 209.402 375.17 211.841C374.064 214.265 373.511 217.227 373.511 220.727C373.511 224.288 374.064 227.288 375.17 229.727C376.292 232.152 377.822 233.985 379.761 235.227C381.716 236.455 383.951 237.068 386.466 237.068C387.86 237.068 389.163 236.886 390.375 236.523C391.602 236.144 392.701 235.591 393.67 234.864C394.655 234.136 395.481 233.242 396.148 232.182C396.83 231.121 397.299 229.909 397.557 228.545L406.057 228.591C405.739 230.803 405.049 232.879 403.989 234.818C402.943 236.758 401.572 238.47 399.875 239.955C398.178 241.424 396.193 242.576 393.92 243.409C391.648 244.227 389.125 244.636 386.352 244.636C382.261 244.636 378.61 243.689 375.398 241.795C372.186 239.902 369.655 237.167 367.807 233.591C365.958 230.015 365.034 225.727 365.034 220.727C365.034 215.712 365.966 211.424 367.83 207.864C369.693 204.288 372.231 201.553 375.443 199.659C378.655 197.765 382.292 196.818 386.352 196.818C388.943 196.818 391.352 197.182 393.58 197.909C395.807 198.636 397.792 199.705 399.534 201.114C401.277 202.508 402.708 204.22 403.83 206.25C404.966 208.265 405.708 210.568 406.057 213.159ZM413.778 244V197.455H444.051V204.523H422.21V217.159H442.483V224.227H422.21V236.932H444.233V244H413.778Z" fill="black"/>
<circle cx="441" cy="514.703" r="129" fill="#D9D9D9"/>
<path d="M398.811 509.719C398.692 508.602 398.189 507.733 397.303 507.111C396.425 506.489 395.283 506.178 393.876 506.178C392.888 506.178 392.04 506.327 391.332 506.625C390.625 506.923 390.084 507.328 389.709 507.839C389.334 508.351 389.142 508.935 389.134 509.591C389.134 510.136 389.257 510.609 389.504 511.01C389.76 511.411 390.105 511.751 390.54 512.033C390.974 512.305 391.456 512.536 391.984 512.723C392.513 512.911 393.045 513.068 393.582 513.196L396.037 513.81C397.026 514.04 397.976 514.351 398.888 514.743C399.808 515.135 400.631 515.629 401.355 516.226C402.088 516.822 402.668 517.543 403.094 518.386C403.52 519.23 403.733 520.219 403.733 521.352C403.733 522.886 403.341 524.237 402.557 525.405C401.773 526.564 400.639 527.472 399.156 528.128C397.682 528.776 395.896 529.099 393.8 529.099C391.763 529.099 389.994 528.784 388.494 528.153C387.003 527.523 385.835 526.602 384.991 525.392C384.156 524.182 383.705 522.707 383.636 520.969H388.303C388.371 521.881 388.652 522.639 389.146 523.244C389.641 523.849 390.284 524.301 391.077 524.599C391.878 524.898 392.773 525.047 393.761 525.047C394.793 525.047 395.696 524.893 396.472 524.587C397.256 524.271 397.869 523.837 398.312 523.283C398.756 522.72 398.982 522.064 398.99 521.314C398.982 520.632 398.781 520.07 398.389 519.626C397.997 519.175 397.447 518.8 396.74 518.501C396.041 518.195 395.223 517.922 394.286 517.683L391.307 516.916C389.151 516.362 387.446 515.523 386.193 514.398C384.949 513.264 384.327 511.76 384.327 509.885C384.327 508.342 384.744 506.991 385.58 505.832C386.423 504.673 387.57 503.774 389.018 503.135C390.467 502.487 392.108 502.163 393.94 502.163C395.798 502.163 397.426 502.487 398.824 503.135C400.23 503.774 401.334 504.665 402.135 505.807C402.936 506.94 403.349 508.244 403.375 509.719H398.811ZM406.811 506.497V502.521H427.7V506.497H419.608V528.703H414.903V506.497H406.811ZM431.925 528.703H426.863L436.08 502.521H441.935L451.165 528.703H446.103L439.11 507.891H438.905L431.925 528.703ZM432.091 518.438H445.898V522.247H432.091V518.438ZM454.614 528.703V502.521H464.432C466.443 502.521 468.131 502.871 469.494 503.57C470.866 504.268 471.902 505.249 472.601 506.51C473.308 507.763 473.662 509.224 473.662 510.895C473.662 512.574 473.304 514.031 472.588 515.267C471.881 516.494 470.837 517.445 469.456 518.118C468.075 518.783 466.379 519.115 464.368 519.115H457.375V515.178H463.729C464.905 515.178 465.868 515.016 466.618 514.692C467.368 514.359 467.922 513.878 468.28 513.247C468.646 512.608 468.83 511.824 468.83 510.895C468.83 509.966 468.646 509.173 468.28 508.517C467.913 507.852 467.355 507.349 466.605 507.009C465.855 506.659 464.888 506.484 463.703 506.484H459.357V528.703H454.614ZM468.139 516.839L474.621 528.703H469.328L462.962 516.839H468.139ZM476.877 506.497V502.521H497.766V506.497H489.674V528.703H484.969V506.497H476.877Z" fill="black"/>
<path d="M532.547 191.455H535.772L540.09 201.994H540.261L544.579 191.455H547.803V206H545.275V196.007H545.14L541.12 205.957H539.231L535.211 195.986H535.076V206H532.547V191.455ZM552.54 206H549.728L554.849 191.455H558.101L563.229 206H560.417L556.532 194.438H556.418L552.54 206ZM552.633 200.297H560.303V202.413H552.633V200.297ZM565.145 206V191.455H567.78V198.138H567.958L573.632 191.455H576.85L571.225 197.982L576.899 206H573.732L569.392 199.764L567.78 201.668V206H565.145ZM578.68 206V191.455H588.14V193.663H581.315V197.612H587.65V199.821H581.315V203.791H588.197V206H578.68ZM594.795 191.455H597.771L601.329 197.889H601.471L605.03 191.455H608.006L602.714 200.574V206H600.087V200.574L594.795 191.455ZM622.049 198.727C622.049 200.295 621.755 201.637 621.168 202.754C620.585 203.867 619.79 204.719 618.781 205.311C617.778 205.903 616.639 206.199 615.365 206.199C614.092 206.199 612.951 205.903 611.942 205.311C610.938 204.714 610.143 203.86 609.556 202.747C608.973 201.63 608.682 200.29 608.682 198.727C608.682 197.16 608.973 195.82 609.556 194.707C610.143 193.59 610.938 192.735 611.942 192.143C612.951 191.552 614.092 191.256 615.365 191.256C616.639 191.256 617.778 191.552 618.781 192.143C619.79 192.735 620.585 193.59 621.168 194.707C621.755 195.82 622.049 197.16 622.049 198.727ZM619.399 198.727C619.399 197.624 619.227 196.694 618.881 195.936C618.54 195.174 618.067 194.598 617.46 194.21C616.854 193.817 616.156 193.621 615.365 193.621C614.575 193.621 613.876 193.817 613.27 194.21C612.664 194.598 612.188 195.174 611.843 195.936C611.502 196.694 611.331 197.624 611.331 198.727C611.331 199.83 611.502 200.763 611.843 201.526C612.188 202.283 612.664 202.858 613.27 203.251C613.876 203.64 614.575 203.834 615.365 203.834C616.156 203.834 616.854 203.64 617.46 203.251C618.067 202.858 618.54 202.283 618.881 201.526C619.227 200.763 619.399 199.83 619.399 198.727ZM633.709 191.455H636.344V200.957C636.344 201.999 636.097 202.915 635.605 203.706C635.117 204.497 634.431 205.115 633.545 205.56C632.66 206 631.625 206.22 630.442 206.22C629.253 206.22 628.216 206 627.331 205.56C626.445 205.115 625.759 204.497 625.271 203.706C624.783 202.915 624.54 201.999 624.54 200.957V191.455H627.175V200.737C627.175 201.343 627.307 201.883 627.572 202.357C627.842 202.83 628.221 203.202 628.709 203.472C629.196 203.737 629.774 203.869 630.442 203.869C631.109 203.869 631.687 203.737 632.175 203.472C632.667 203.202 633.046 202.83 633.311 202.357C633.576 201.883 633.709 201.343 633.709 200.737V191.455ZM639.208 206V191.455H644.662C645.78 191.455 646.717 191.649 647.475 192.037C648.237 192.425 648.812 192.97 649.201 193.67C649.593 194.366 649.79 195.179 649.79 196.107C649.79 197.039 649.591 197.849 649.193 198.536C648.8 199.217 648.22 199.745 647.453 200.119C646.686 200.489 645.744 200.673 644.627 200.673H640.742V198.486H644.272C644.925 198.486 645.46 198.396 645.877 198.216C646.293 198.031 646.601 197.764 646.8 197.413C647.004 197.058 647.105 196.623 647.105 196.107C647.105 195.59 647.004 195.15 646.8 194.786C646.596 194.416 646.286 194.137 645.87 193.947C645.453 193.753 644.915 193.656 644.257 193.656H641.843V206H639.208ZM646.722 199.409L650.323 206H647.382L643.845 199.409H646.722ZM660.237 206L656.132 191.455H658.966L661.587 202.143H661.722L664.52 191.455H667.098L669.904 202.151H670.031L672.652 191.455H675.486L671.381 206H668.781L665.87 195.794H665.756L662.837 206H660.237ZM677.814 206H675.001L680.122 191.455H683.375L688.503 206H685.69L681.805 194.438H681.692L677.814 206ZM677.906 200.297H685.577V202.413H677.906V200.297ZM687.94 191.455H690.916L694.474 197.889H694.616L698.174 191.455H701.15L695.859 200.574V206H693.231V200.574L687.94 191.455ZM707.338 193.663V191.455H718.943V193.663H714.447V206H711.834V193.663H707.338ZM733.533 198.727C733.533 200.295 733.239 201.637 732.652 202.754C732.07 203.867 731.274 204.719 730.266 205.311C729.262 205.903 728.123 206.199 726.85 206.199C725.576 206.199 724.435 205.903 723.426 205.311C722.423 204.714 721.627 203.86 721.04 202.747C720.458 201.63 720.166 200.29 720.166 198.727C720.166 197.16 720.458 195.82 721.04 194.707C721.627 193.59 722.423 192.735 723.426 192.143C724.435 191.552 725.576 191.256 726.85 191.256C728.123 191.256 729.262 191.552 730.266 192.143C731.274 192.735 732.07 193.59 732.652 194.707C733.239 195.82 733.533 197.16 733.533 198.727ZM730.884 198.727C730.884 197.624 730.711 196.694 730.365 195.936C730.024 195.174 729.551 194.598 728.945 194.21C728.339 193.817 727.64 193.621 726.85 193.621C726.059 193.621 725.361 193.817 724.754 194.21C724.148 194.598 723.673 195.174 723.327 195.936C722.986 196.694 722.816 197.624 722.816 198.727C722.816 199.83 722.986 200.763 723.327 201.526C723.673 202.283 724.148 202.858 724.754 203.251C725.361 203.64 726.059 203.834 726.85 203.834C727.64 203.834 728.339 203.64 728.945 203.251C729.551 202.858 730.024 202.283 730.365 201.526C730.711 200.763 730.884 199.83 730.884 198.727ZM742.853 206H740.04L745.161 191.455H748.414L753.542 206H750.729L746.844 194.438H746.731L742.853 206ZM742.945 200.297H750.616V202.413H742.945V200.297ZM760.419 206V191.455H763.053V197.612H769.794V191.455H772.436V206H769.794V199.821H763.053V206H760.419ZM777.936 191.455V206H775.301V191.455H777.936ZM790.534 196.099C790.416 195.716 790.252 195.373 790.044 195.07C789.84 194.762 789.594 194.499 789.305 194.281C789.021 194.063 788.694 193.9 788.325 193.791C787.956 193.678 787.553 193.621 787.118 193.621C786.337 193.621 785.64 193.817 785.03 194.21C784.419 194.603 783.938 195.181 783.588 195.943C783.242 196.701 783.069 197.624 783.069 198.713C783.069 199.812 783.242 200.742 783.588 201.504C783.934 202.267 784.414 202.847 785.03 203.244C785.645 203.637 786.36 203.834 787.175 203.834C787.913 203.834 788.552 203.692 789.092 203.408C789.637 203.124 790.056 202.721 790.349 202.2C790.643 201.675 790.79 201.059 790.79 200.354L791.386 200.446H787.437V198.386H793.339V200.134C793.339 201.379 793.074 202.456 792.544 203.365C792.014 204.274 791.284 204.975 790.356 205.467C789.428 205.955 788.363 206.199 787.16 206.199C785.82 206.199 784.644 205.898 783.631 205.297C782.622 204.691 781.834 203.831 781.265 202.719C780.702 201.601 780.42 200.276 780.42 198.741C780.42 197.567 780.586 196.518 780.917 195.595C781.254 194.672 781.722 193.888 782.324 193.244C782.925 192.596 783.631 192.103 784.44 191.767C785.25 191.426 786.131 191.256 787.082 191.256C787.887 191.256 788.638 191.374 789.334 191.611C790.03 191.843 790.648 192.174 791.187 192.605C791.732 193.036 792.179 193.547 792.53 194.139C792.88 194.731 793.11 195.384 793.219 196.099H790.534ZM795.887 206V191.455H798.522V197.612H805.262V191.455H807.904V206H805.262V199.821H798.522V206H795.887ZM540.452 219.453C540.386 218.833 540.107 218.35 539.614 218.004C539.127 217.659 538.492 217.486 537.711 217.486C537.162 217.486 536.69 217.569 536.297 217.734C535.904 217.9 535.604 218.125 535.395 218.409C535.187 218.693 535.081 219.018 535.076 219.382C535.076 219.685 535.145 219.948 535.282 220.17C535.424 220.393 535.616 220.582 535.857 220.739C536.099 220.89 536.366 221.018 536.66 221.122C536.953 221.226 537.249 221.314 537.547 221.385L538.911 221.726C539.46 221.854 539.988 222.027 540.495 222.244C541.006 222.462 541.463 222.737 541.866 223.068C542.273 223.4 542.595 223.8 542.832 224.268C543.068 224.737 543.187 225.286 543.187 225.916C543.187 226.768 542.969 227.519 542.533 228.168C542.098 228.812 541.468 229.316 540.644 229.68C539.825 230.04 538.833 230.22 537.668 230.22C536.537 230.22 535.554 230.045 534.721 229.695C533.892 229.344 533.243 228.833 532.775 228.161C532.311 227.488 532.06 226.669 532.022 225.703H534.614C534.652 226.21 534.808 226.631 535.083 226.967C535.358 227.304 535.715 227.554 536.155 227.72C536.6 227.886 537.098 227.969 537.647 227.969C538.22 227.969 538.722 227.884 539.153 227.713C539.588 227.538 539.929 227.296 540.175 226.989C540.422 226.676 540.547 226.312 540.552 225.895C540.547 225.516 540.436 225.204 540.218 224.957C540 224.706 539.695 224.498 539.302 224.332C538.913 224.162 538.459 224.01 537.938 223.878L536.283 223.452C535.085 223.144 534.138 222.678 533.442 222.053C532.751 221.423 532.405 220.587 532.405 219.545C532.405 218.688 532.637 217.938 533.101 217.294C533.57 216.65 534.207 216.151 535.012 215.795C535.817 215.436 536.728 215.256 537.746 215.256C538.779 215.256 539.683 215.436 540.459 215.795C541.241 216.151 541.854 216.645 542.299 217.28C542.744 217.91 542.974 218.634 542.988 219.453H540.452ZM557.986 220.362H555.33C555.254 219.927 555.114 219.541 554.911 219.205C554.707 218.864 554.454 218.575 554.151 218.338C553.848 218.101 553.502 217.924 553.114 217.805C552.73 217.682 552.316 217.621 551.871 217.621C551.08 217.621 550.379 217.82 549.769 218.217C549.158 218.61 548.68 219.188 548.334 219.95C547.988 220.708 547.816 221.634 547.816 222.727C547.816 223.84 547.988 224.777 548.334 225.54C548.684 226.297 549.163 226.87 549.769 227.259C550.379 227.642 551.078 227.834 551.864 227.834C552.299 227.834 552.707 227.777 553.085 227.663C553.469 227.545 553.812 227.372 554.115 227.145C554.423 226.918 554.681 226.638 554.889 226.307C555.102 225.975 555.249 225.597 555.33 225.17L557.986 225.185C557.887 225.876 557.671 226.525 557.34 227.131C557.013 227.737 556.585 228.272 556.054 228.736C555.524 229.195 554.904 229.555 554.193 229.815C553.483 230.071 552.695 230.199 551.828 230.199C550.55 230.199 549.409 229.903 548.405 229.311C547.401 228.719 546.611 227.865 546.033 226.747C545.455 225.63 545.166 224.29 545.166 222.727C545.166 221.16 545.458 219.82 546.04 218.707C546.622 217.59 547.415 216.735 548.419 216.143C549.423 215.552 550.559 215.256 551.828 215.256C552.638 215.256 553.391 215.369 554.087 215.597C554.783 215.824 555.403 216.158 555.948 216.598C556.492 217.034 556.94 217.569 557.29 218.203C557.645 218.833 557.877 219.553 557.986 220.362ZM573.396 222.727C573.396 224.295 573.103 225.637 572.515 226.754C571.933 227.867 571.138 228.719 570.129 229.311C569.125 229.903 567.987 230.199 566.713 230.199C565.439 230.199 564.298 229.903 563.29 229.311C562.286 228.714 561.49 227.86 560.903 226.747C560.321 225.63 560.03 224.29 560.03 222.727C560.03 221.16 560.321 219.82 560.903 218.707C561.49 217.59 562.286 216.735 563.29 216.143C564.298 215.552 565.439 215.256 566.713 215.256C567.987 215.256 569.125 215.552 570.129 216.143C571.138 216.735 571.933 217.59 572.515 218.707C573.103 219.82 573.396 221.16 573.396 222.727ZM570.747 222.727C570.747 221.624 570.574 220.694 570.229 219.936C569.888 219.174 569.414 218.598 568.808 218.21C568.202 217.817 567.504 217.621 566.713 217.621C565.922 217.621 565.224 217.817 564.618 218.21C564.012 218.598 563.536 219.174 563.19 219.936C562.849 220.694 562.679 221.624 562.679 222.727C562.679 223.83 562.849 224.763 563.19 225.526C563.536 226.283 564.012 226.858 564.618 227.251C565.224 227.64 565.922 227.834 566.713 227.834C567.504 227.834 568.202 227.64 568.808 227.251C569.414 226.858 569.888 226.283 570.229 225.526C570.574 224.763 570.747 223.83 570.747 222.727ZM575.887 230V215.455H581.342C582.459 215.455 583.397 215.649 584.154 216.037C584.917 216.425 585.492 216.97 585.88 217.67C586.273 218.366 586.47 219.179 586.47 220.107C586.47 221.039 586.271 221.849 585.873 222.536C585.48 223.217 584.9 223.745 584.133 224.119C583.366 224.489 582.424 224.673 581.306 224.673H577.421V222.486H580.951C581.605 222.486 582.14 222.396 582.556 222.216C582.973 222.031 583.281 221.764 583.48 221.413C583.683 221.058 583.785 220.623 583.785 220.107C583.785 219.59 583.683 219.15 583.48 218.786C583.276 218.416 582.966 218.137 582.549 217.947C582.133 217.753 581.595 217.656 580.937 217.656H578.522V230H575.887ZM583.402 223.409L587.002 230H584.062L580.525 223.409H583.402ZM588.895 230V215.455H598.355V217.663H591.53V221.612H597.865V223.821H591.53V227.791H598.412V230H588.895ZM606.004 230V215.455H611.573C612.624 215.455 613.497 215.62 614.193 215.952C614.894 216.278 615.417 216.726 615.763 217.294C616.113 217.862 616.289 218.506 616.289 219.226C616.289 219.818 616.175 220.324 615.948 220.746C615.72 221.162 615.415 221.501 615.031 221.761C614.648 222.022 614.219 222.209 613.746 222.322V222.464C614.262 222.493 614.757 222.652 615.23 222.94C615.709 223.224 616.099 223.627 616.402 224.148C616.705 224.669 616.857 225.298 616.857 226.037C616.857 226.79 616.674 227.467 616.31 228.068C615.945 228.665 615.396 229.136 614.662 229.482C613.928 229.827 613.005 230 611.892 230H606.004ZM608.639 227.798H611.473C612.43 227.798 613.119 227.616 613.54 227.251C613.966 226.882 614.179 226.409 614.179 225.831C614.179 225.4 614.073 225.012 613.86 224.666C613.647 224.316 613.343 224.041 612.951 223.842C612.558 223.639 612.089 223.537 611.544 223.537H608.639V227.798ZM608.639 221.641H611.246C611.701 221.641 612.11 221.558 612.475 221.392C612.839 221.222 613.126 220.982 613.334 220.675C613.547 220.362 613.654 219.993 613.654 219.567C613.654 219.003 613.455 218.539 613.057 218.175C612.664 217.81 612.079 217.628 611.303 217.628H608.639V221.641ZM618.155 215.455H621.131L624.689 221.889H624.831L628.389 215.455H631.365L626.074 224.574V230H623.446V224.574L618.155 215.455ZM646.097 219.453C646.031 218.833 645.751 218.35 645.259 218.004C644.771 217.659 644.137 217.486 643.355 217.486C642.806 217.486 642.335 217.569 641.942 217.734C641.549 217.9 641.248 218.125 641.04 218.409C640.832 218.693 640.725 219.018 640.72 219.382C640.72 219.685 640.789 219.948 640.926 220.17C641.068 220.393 641.26 220.582 641.502 220.739C641.743 220.89 642.011 221.018 642.304 221.122C642.598 221.226 642.894 221.314 643.192 221.385L644.556 221.726C645.105 221.854 645.633 222.027 646.139 222.244C646.651 222.462 647.108 222.737 647.51 223.068C647.917 223.4 648.239 223.8 648.476 224.268C648.713 224.737 648.831 225.286 648.831 225.916C648.831 226.768 648.613 227.519 648.178 228.168C647.742 228.812 647.112 229.316 646.289 229.68C645.469 230.04 644.477 230.22 643.313 230.22C642.181 230.22 641.199 230.045 640.365 229.695C639.537 229.344 638.888 228.833 638.419 228.161C637.955 227.488 637.704 226.669 637.666 225.703H640.259C640.297 226.21 640.453 226.631 640.727 226.967C641.002 227.304 641.36 227.554 641.8 227.72C642.245 227.886 642.742 227.969 643.291 227.969C643.864 227.969 644.366 227.884 644.797 227.713C645.233 227.538 645.574 227.296 645.82 226.989C646.066 226.676 646.192 226.312 646.196 225.895C646.192 225.516 646.08 225.204 645.862 224.957C645.645 224.706 645.339 224.498 644.946 224.332C644.558 224.162 644.103 224.01 643.583 223.878L641.928 223.452C640.73 223.144 639.783 222.678 639.087 222.053C638.396 221.423 638.05 220.587 638.05 219.545C638.05 218.688 638.282 217.938 638.746 217.294C639.215 216.65 639.852 216.151 640.656 215.795C641.461 215.436 642.373 215.256 643.391 215.256C644.423 215.256 645.327 215.436 646.104 215.795C646.885 216.151 647.498 216.645 647.943 217.28C648.388 217.91 648.618 218.634 648.632 219.453H646.097ZM651.18 230V215.455H653.815V227.791H660.221V230H651.18ZM665.143 215.455V230H662.508V215.455H665.143ZM680.447 220.362H677.791C677.715 219.927 677.575 219.541 677.372 219.205C677.168 218.864 676.915 218.575 676.612 218.338C676.309 218.101 675.963 217.924 675.575 217.805C675.191 217.682 674.777 217.621 674.332 217.621C673.541 217.621 672.84 217.82 672.23 218.217C671.619 218.61 671.141 219.188 670.795 219.95C670.449 220.708 670.277 221.634 670.277 222.727C670.277 223.84 670.449 224.777 670.795 225.54C671.145 226.297 671.624 226.87 672.23 227.259C672.84 227.642 673.539 227.834 674.325 227.834C674.76 227.834 675.168 227.777 675.546 227.663C675.93 227.545 676.273 227.372 676.576 227.145C676.884 226.918 677.142 226.638 677.35 226.307C677.563 225.975 677.71 225.597 677.791 225.17L680.447 225.185C680.348 225.876 680.132 226.525 679.801 227.131C679.474 227.737 679.045 228.272 678.515 228.736C677.985 229.195 677.365 229.555 676.654 229.815C675.944 230.071 675.156 230.199 674.289 230.199C673.011 230.199 671.87 229.903 670.866 229.311C669.862 228.719 669.071 227.865 668.494 226.747C667.916 225.63 667.627 224.29 667.627 222.727C667.627 221.16 667.919 219.82 668.501 218.707C669.083 217.59 669.876 216.735 670.88 216.143C671.884 215.552 673.02 215.256 674.289 215.256C675.099 215.256 675.852 215.369 676.548 215.597C677.244 215.824 677.864 216.158 678.409 216.598C678.953 217.034 679.401 217.569 679.751 218.203C680.106 218.833 680.338 219.553 680.447 220.362ZM685.495 215.455V230H682.86V215.455H685.495ZM700.301 215.455V230H697.958L691.104 220.092H690.983V230H688.348V215.455H690.706L697.553 225.369H697.681V215.455H700.301ZM712.917 220.099C712.798 219.716 712.635 219.373 712.427 219.07C712.223 218.762 711.977 218.499 711.688 218.281C711.404 218.063 711.077 217.9 710.708 217.791C710.339 217.678 709.936 217.621 709.501 217.621C708.719 217.621 708.023 217.817 707.413 218.21C706.802 218.603 706.321 219.181 705.971 219.943C705.625 220.701 705.452 221.624 705.452 222.713C705.452 223.812 705.625 224.742 705.971 225.504C706.316 226.267 706.797 226.847 707.413 227.244C708.028 227.637 708.743 227.834 709.557 227.834C710.296 227.834 710.935 227.692 711.475 227.408C712.02 227.124 712.439 226.721 712.732 226.2C713.026 225.675 713.172 225.059 713.172 224.354L713.769 224.446H709.82V222.386H715.722V224.134C715.722 225.379 715.457 226.456 714.927 227.365C714.396 228.274 713.667 228.975 712.739 229.467C711.811 229.955 710.746 230.199 709.543 230.199C708.203 230.199 707.027 229.898 706.013 229.297C705.005 228.691 704.216 227.831 703.648 226.719C703.085 225.601 702.803 224.276 702.803 222.741C702.803 221.567 702.969 220.518 703.3 219.595C703.636 218.672 704.105 217.888 704.707 217.244C705.308 216.596 706.013 216.103 706.823 215.767C707.633 215.426 708.513 215.256 709.465 215.256C710.27 215.256 711.02 215.374 711.716 215.611C712.413 215.843 713.03 216.174 713.57 216.605C714.115 217.036 714.562 217.547 714.913 218.139C715.263 218.731 715.493 219.384 715.601 220.099H712.917ZM723.231 230V215.455H732.549V217.663H725.866V221.612H731.91V223.821H725.866V230H723.231ZM734.95 230V215.455H740.404C741.522 215.455 742.459 215.649 743.217 216.037C743.979 216.425 744.554 216.97 744.943 217.67C745.336 218.366 745.532 219.179 745.532 220.107C745.532 221.039 745.333 221.849 744.936 222.536C744.543 223.217 743.963 223.745 743.196 224.119C742.428 224.489 741.486 224.673 740.369 224.673H736.484V222.486H740.014C740.667 222.486 741.202 222.396 741.619 222.216C742.035 222.031 742.343 221.764 742.542 221.413C742.746 221.058 742.848 220.623 742.848 220.107C742.848 219.59 742.746 219.15 742.542 218.786C742.339 218.416 742.028 218.137 741.612 217.947C741.195 217.753 740.658 217.656 740 217.656H737.585V230H734.95ZM742.464 223.409L746.065 230H743.125L739.588 223.409H742.464ZM757.127 215.455H759.762V224.957C759.762 225.999 759.515 226.915 759.023 227.706C758.535 228.497 757.849 229.115 756.963 229.56C756.078 230 755.043 230.22 753.86 230.22C752.671 230.22 751.634 230 750.749 229.56C749.863 229.115 749.177 228.497 748.689 227.706C748.201 226.915 747.958 225.999 747.958 224.957V215.455H750.593V224.737C750.593 225.343 750.725 225.883 750.99 226.357C751.26 226.83 751.639 227.202 752.127 227.472C752.614 227.737 753.192 227.869 753.86 227.869C754.527 227.869 755.105 227.737 755.593 227.472C756.085 227.202 756.464 226.83 756.729 226.357C756.994 225.883 757.127 225.343 757.127 224.737V215.455ZM765.261 215.455V230H762.626V215.455H765.261ZM767.475 217.663V215.455H779.08V217.663H774.584V230H771.97V217.663H767.475ZM788.146 230H785.333L790.454 215.455H793.707L798.835 230H796.022L792.137 218.438H792.024L788.146 230ZM788.238 224.297H795.909V226.413H788.238V224.297ZM812.704 215.455V230H810.36L803.506 220.092H803.386V230H800.751V215.455H803.109L809.955 225.369H810.083V215.455H812.704ZM820.504 230H815.575V215.455H820.603C822.047 215.455 823.288 215.746 824.325 216.328C825.366 216.906 826.167 217.737 826.725 218.821C827.284 219.905 827.563 221.203 827.563 222.713C827.563 224.228 827.282 225.53 826.718 226.619C826.16 227.708 825.352 228.544 824.296 229.126C823.245 229.709 821.981 230 820.504 230ZM818.21 227.72H820.376C821.389 227.72 822.234 227.536 822.911 227.166C823.589 226.792 824.098 226.236 824.438 225.497C824.779 224.754 824.95 223.826 824.95 222.713C824.95 221.6 824.779 220.677 824.438 219.943C824.098 219.205 823.593 218.653 822.926 218.288C822.263 217.919 821.439 217.734 820.454 217.734H818.21V227.72ZM534.415 254H531.603L536.724 239.455H539.976L545.104 254H542.292L538.407 242.438H538.293L534.415 254ZM534.508 248.297H542.178V250.413H534.508V248.297ZM547.306 239.455L551.091 250.903H551.241L555.019 239.455H557.917L552.789 254H549.536L544.415 239.455H547.306ZM572.049 246.727C572.049 248.295 571.755 249.637 571.168 250.754C570.585 251.867 569.79 252.719 568.781 253.311C567.778 253.903 566.639 254.199 565.365 254.199C564.092 254.199 562.951 253.903 561.942 253.311C560.938 252.714 560.143 251.86 559.556 250.747C558.973 249.63 558.682 248.29 558.682 246.727C558.682 245.16 558.973 243.82 559.556 242.707C560.143 241.59 560.938 240.735 561.942 240.143C562.951 239.552 564.092 239.256 565.365 239.256C566.639 239.256 567.778 239.552 568.781 240.143C569.79 240.735 570.585 241.59 571.168 242.707C571.755 243.82 572.049 245.16 572.049 246.727ZM569.399 246.727C569.399 245.624 569.227 244.694 568.881 243.936C568.54 243.174 568.067 242.598 567.46 242.21C566.854 241.817 566.156 241.621 565.365 241.621C564.575 241.621 563.876 241.817 563.27 242.21C562.664 242.598 562.188 243.174 561.843 243.936C561.502 244.694 561.331 245.624 561.331 246.727C561.331 247.83 561.502 248.763 561.843 249.526C562.188 250.283 562.664 250.858 563.27 251.251C563.876 251.64 564.575 251.834 565.365 251.834C566.156 251.834 566.854 251.64 567.46 251.251C568.067 250.858 568.54 250.283 568.881 249.526C569.227 248.763 569.399 247.83 569.399 246.727ZM577.175 239.455V254H574.54V239.455H577.175ZM584.957 254H580.028V239.455H585.056C586.5 239.455 587.741 239.746 588.778 240.328C589.82 240.906 590.62 241.737 591.178 242.821C591.737 243.905 592.017 245.203 592.017 246.713C592.017 248.228 591.735 249.53 591.171 250.619C590.613 251.708 589.805 252.544 588.75 253.126C587.698 253.709 586.434 254 584.957 254ZM582.663 251.72H584.829C585.842 251.72 586.687 251.536 587.365 251.166C588.042 250.792 588.551 250.236 588.892 249.497C589.232 248.754 589.403 247.826 589.403 246.713C589.403 245.6 589.232 244.677 588.892 243.943C588.551 243.205 588.046 242.653 587.379 242.288C586.716 241.919 585.892 241.734 584.907 241.734H582.663V251.72ZM597.155 239.455V254H594.52V239.455H597.155ZM611.962 239.455V254H609.618L602.764 244.092H602.643V254H600.008V239.455H602.366L609.213 249.369H609.341V239.455H611.962ZM624.577 244.099C624.459 243.716 624.295 243.373 624.087 243.07C623.883 242.762 623.637 242.499 623.348 242.281C623.064 242.063 622.737 241.9 622.368 241.791C621.999 241.678 621.596 241.621 621.161 241.621C620.379 241.621 619.683 241.817 619.073 242.21C618.462 242.603 617.981 243.181 617.631 243.943C617.285 244.701 617.112 245.624 617.112 246.713C617.112 247.812 617.285 248.742 617.631 249.504C617.977 250.267 618.457 250.847 619.073 251.244C619.688 251.637 620.403 251.834 621.218 251.834C621.956 251.834 622.595 251.692 623.135 251.408C623.68 251.124 624.099 250.721 624.392 250.2C624.686 249.675 624.833 249.059 624.833 248.354L625.429 248.446H621.48V246.386H627.382V248.134C627.382 249.379 627.117 250.456 626.587 251.365C626.057 252.274 625.327 252.975 624.399 253.467C623.471 253.955 622.406 254.199 621.203 254.199C619.863 254.199 618.687 253.898 617.674 253.297C616.665 252.691 615.877 251.831 615.308 250.719C614.745 249.601 614.463 248.276 614.463 246.741C614.463 245.567 614.629 244.518 614.96 243.595C615.297 242.672 615.765 241.888 616.367 241.244C616.968 240.596 617.674 240.103 618.483 239.767C619.293 239.426 620.174 239.256 621.125 239.256C621.93 239.256 622.681 239.374 623.377 239.611C624.073 239.843 624.691 240.174 625.23 240.605C625.775 241.036 626.222 241.547 626.573 242.139C626.923 242.731 627.153 243.384 627.262 244.099H624.577ZM634.891 254V239.455H640.459C641.511 239.455 642.384 239.62 643.08 239.952C643.781 240.278 644.304 240.726 644.65 241.294C645 241.862 645.175 242.506 645.175 243.226C645.175 243.818 645.062 244.324 644.834 244.746C644.607 245.162 644.302 245.501 643.918 245.761C643.535 246.022 643.106 246.209 642.633 246.322V246.464C643.149 246.493 643.644 246.652 644.117 246.94C644.595 247.224 644.986 247.627 645.289 248.148C645.592 248.669 645.743 249.298 645.743 250.037C645.743 250.79 645.561 251.467 645.197 252.068C644.832 252.665 644.283 253.136 643.549 253.482C642.815 253.827 641.892 254 640.779 254H634.891ZM637.526 251.798H640.36C641.316 251.798 642.005 251.616 642.427 251.251C642.853 250.882 643.066 250.409 643.066 249.831C643.066 249.4 642.959 249.012 642.746 248.666C642.533 248.316 642.23 248.041 641.837 247.842C641.444 247.639 640.975 247.537 640.431 247.537H637.526V251.798ZM637.526 245.641H640.133C640.587 245.641 640.997 245.558 641.361 245.392C641.726 245.222 642.012 244.982 642.221 244.675C642.434 244.362 642.54 243.993 642.54 243.567C642.54 243.003 642.341 242.539 641.944 242.175C641.551 241.81 640.966 241.628 640.189 241.628H637.526V245.641ZM661.033 246.727C661.033 248.295 660.739 249.637 660.152 250.754C659.57 251.867 658.774 252.719 657.766 253.311C656.762 253.903 655.623 254.199 654.35 254.199C653.076 254.199 651.935 253.903 650.926 253.311C649.923 252.714 649.127 251.86 648.54 250.747C647.958 249.63 647.666 248.29 647.666 246.727C647.666 245.16 647.958 243.82 648.54 242.707C649.127 241.59 649.923 240.735 650.926 240.143C651.935 239.552 653.076 239.256 654.35 239.256C655.623 239.256 656.762 239.552 657.766 240.143C658.774 240.735 659.57 241.59 660.152 242.707C660.739 243.82 661.033 245.16 661.033 246.727ZM658.384 246.727C658.384 245.624 658.211 244.694 657.865 243.936C657.524 243.174 657.051 242.598 656.445 242.21C655.839 241.817 655.14 241.621 654.35 241.621C653.559 241.621 652.861 241.817 652.254 242.21C651.648 242.598 651.173 243.174 650.827 243.936C650.486 244.694 650.316 245.624 650.316 246.727C650.316 247.83 650.486 248.763 650.827 249.526C651.173 250.283 651.648 250.858 652.254 251.251C652.861 251.64 653.559 251.834 654.35 251.834C655.14 251.834 655.839 251.64 656.445 251.251C657.051 250.858 657.524 250.283 657.865 249.526C658.211 248.763 658.384 247.83 658.384 246.727ZM663.524 239.455H666.748L671.067 249.994H671.237L675.555 239.455H678.78V254H676.251V244.007H676.116L672.096 253.957H670.207L666.187 243.986H666.052V254H663.524V239.455ZM681.649 254V239.455H687.217C688.268 239.455 689.142 239.62 689.838 239.952C690.539 240.278 691.062 240.726 691.408 241.294C691.758 241.862 691.933 242.506 691.933 243.226C691.933 243.818 691.819 244.324 691.592 244.746C691.365 245.162 691.06 245.501 690.676 245.761C690.292 246.022 689.864 246.209 689.39 246.322V246.464C689.907 246.493 690.401 246.652 690.875 246.94C691.353 247.224 691.744 247.627 692.047 248.148C692.35 248.669 692.501 249.298 692.501 250.037C692.501 250.79 692.319 251.467 691.954 252.068C691.59 252.665 691.041 253.136 690.307 253.482C689.573 253.827 688.649 254 687.537 254H681.649ZM684.284 251.798H687.118C688.074 251.798 688.763 251.616 689.185 251.251C689.611 250.882 689.824 250.409 689.824 249.831C689.824 249.4 689.717 249.012 689.504 248.666C689.291 248.316 688.988 248.041 688.595 247.842C688.202 247.639 687.733 247.537 687.189 247.537H684.284V251.798ZM684.284 245.641H686.89C687.345 245.641 687.755 245.558 688.119 245.392C688.484 245.222 688.77 244.982 688.979 244.675C689.192 244.362 689.298 243.993 689.298 243.567C689.298 243.003 689.099 242.539 688.702 242.175C688.309 241.81 687.724 241.628 686.947 241.628H684.284V245.641ZM702.698 243.453C702.632 242.833 702.353 242.35 701.86 242.004C701.373 241.659 700.738 241.486 699.957 241.486C699.408 241.486 698.937 241.569 698.544 241.734C698.151 241.9 697.85 242.125 697.642 242.409C697.433 242.693 697.327 243.018 697.322 243.382C697.322 243.685 697.391 243.948 697.528 244.17C697.67 244.393 697.862 244.582 698.103 244.739C698.345 244.89 698.612 245.018 698.906 245.122C699.199 245.226 699.495 245.314 699.794 245.385L701.157 245.726C701.706 245.854 702.234 246.027 702.741 246.244C703.252 246.462 703.709 246.737 704.112 247.068C704.519 247.4 704.841 247.8 705.078 248.268C705.314 248.737 705.433 249.286 705.433 249.916C705.433 250.768 705.215 251.519 704.779 252.168C704.344 252.812 703.714 253.316 702.89 253.68C702.071 254.04 701.079 254.22 699.914 254.22C698.783 254.22 697.8 254.045 696.967 253.695C696.138 253.344 695.49 252.833 695.021 252.161C694.557 251.488 694.306 250.669 694.268 249.703H696.86C696.898 250.21 697.054 250.631 697.329 250.967C697.604 251.304 697.961 251.554 698.402 251.72C698.847 251.886 699.344 251.969 699.893 251.969C700.466 251.969 700.968 251.884 701.399 251.713C701.834 251.538 702.175 251.296 702.421 250.989C702.668 250.676 702.793 250.312 702.798 249.895C702.793 249.516 702.682 249.204 702.464 248.957C702.246 248.706 701.941 248.498 701.548 248.332C701.16 248.162 700.705 248.01 700.184 247.878L698.529 247.452C697.331 247.144 696.384 246.678 695.688 246.053C694.997 245.423 694.652 244.587 694.652 243.545C694.652 242.688 694.884 241.938 695.348 241.294C695.816 240.65 696.453 240.151 697.258 239.795C698.063 239.436 698.974 239.256 699.992 239.256C701.025 239.256 701.929 239.436 702.705 239.795C703.487 240.151 704.1 240.645 704.545 241.28C704.99 241.91 705.22 242.634 705.234 243.453H702.698ZM710.814 239.455L710.58 249.724H708.293L708.066 239.455H710.814ZM709.437 254.156C709.006 254.156 708.636 254.005 708.329 253.702C708.026 253.399 707.874 253.029 707.874 252.594C707.874 252.168 708.026 251.803 708.329 251.5C708.636 251.197 709.006 251.045 709.437 251.045C709.858 251.045 710.223 251.197 710.53 251.5C710.843 251.803 710.999 252.168 710.999 252.594C710.999 252.883 710.926 253.145 710.779 253.382C710.637 253.619 710.448 253.808 710.211 253.95C709.979 254.088 709.721 254.156 709.437 254.156Z" fill="black"/>
</g>
<defs>
<clipPath id="clip0_51_14">
<rect width="2647" height="832" fill="white"/>
</clipPath>
</defs>
</svg>
