<svg width="35" height="35" viewBox="0 0 35 35" fill="none" xmlns="http://www.w3.org/2000/svg">
<path d="M17.6458 27.0521L17.5 27.1979L17.3396 27.0521C10.4125 20.7667 5.83332 16.6104 5.83332 12.3958C5.83332 9.47917 8.02082 7.29167 10.9375 7.29167C13.1833 7.29167 15.3708 8.75 16.1437 10.7333H18.8562C19.6292 8.75 21.8167 7.29167 24.0625 7.29167C26.9792 7.29167 29.1667 9.47917 29.1667 12.3958C29.1667 16.6104 24.5875 20.7667 17.6458 27.0521ZM24.0625 4.375C21.525 4.375 19.0896 5.55625 17.5 7.40833C15.9104 5.55625 13.475 4.375 10.9375 4.375C6.44582 4.375 2.91666 7.88958 2.91666 12.3958C2.91666 17.8938 7.87499 22.4 15.3854 29.2104L17.5 31.1354L19.6146 29.2104C27.125 22.4 32.0833 17.8938 32.0833 12.3958C32.0833 7.88958 28.5542 4.375 24.0625 4.375Z" fill="white"/>
</svg>
