<svg width="276" height="276" viewBox="0 0 276 276" fill="none" xmlns="http://www.w3.org/2000/svg">
<path d="M245.362 111.314C250.203 111.314 254.002 115.442 253.633 120.269C249.062 180.072 199.089 227.174 138.115 227.173C77.141 227.173 27.168 180.072 22.5963 120.269C22.2273 115.442 26.0267 111.314 30.8681 111.314L245.362 111.314Z" fill="#16992B"/>
<path d="M240.885 111.314C240.885 168.073 194.873 214.085 138.114 214.085C81.3558 214.085 35.3436 168.073 35.3436 111.314L240.885 111.314Z" fill="#F4C3C3"/>
<path d="M231.135 111.314C231.135 162.688 189.488 204.334 138.114 204.334C86.7405 204.334 45.0938 162.688 45.0938 111.314H231.135Z" fill="#F44D61"/>
<path d="M81.7089 123.733C81.7089 123.733 81.7319 123.815 81.7622 123.958C81.7847 124.095 81.8447 124.317 81.8713 124.56C81.9033 124.807 81.9557 125.119 81.9767 125.445C82.0356 126.193 82.0279 126.944 81.9537 127.691C81.9122 128.094 81.857 128.508 81.7687 128.913C81.6935 129.328 81.5819 129.73 81.4569 130.129C81.3304 130.527 81.184 130.916 81.0158 131.289C80.6855 132.039 80.2713 132.721 79.8028 133.296C79.3722 133.832 78.8658 134.302 78.2996 134.692C77.8648 134.99 77.3934 135.23 76.897 135.408C76.7083 135.479 76.5339 135.513 76.4257 135.545C76.3132 135.574 76.2448 135.583 76.2448 135.583C73.4725 135.932 70.9419 133.969 70.5923 131.196C70.587 131.154 70.58 131.089 70.5757 131.047C70.5757 131.047 70.5693 130.979 70.5727 130.863C70.5802 130.75 70.576 130.572 70.6035 130.372C70.6671 129.849 70.7983 129.337 70.9938 128.847C71.2497 128.209 71.5971 127.612 72.0251 127.074C72.4839 126.491 73.0587 125.937 73.7176 125.45C74.049 125.202 74.3945 124.973 74.7526 124.765C75.1143 124.556 75.4819 124.359 75.8705 124.194C76.2457 124.019 76.6382 123.874 77.0221 123.745C77.4057 123.616 77.7895 123.512 78.1577 123.426C78.5267 123.341 78.8809 123.276 79.2089 123.23C79.5311 123.178 79.8463 123.161 80.0947 123.139C80.3378 123.111 80.5677 123.121 80.706 123.113C80.8521 123.111 80.937 123.116 80.937 123.116C81.3088 123.136 81.6122 123.394 81.7089 123.733ZM160.557 163.855C160.557 163.855 160.642 163.846 160.786 163.821C160.921 163.791 161.15 163.765 161.385 163.699C161.627 163.637 161.936 163.571 162.246 163.47C162.963 163.248 163.658 162.962 164.325 162.617C164.684 162.43 165.049 162.225 165.392 161.993C165.75 161.769 166.082 161.517 166.406 161.253C166.729 160.989 167.037 160.708 167.32 160.414C167.895 159.83 168.375 159.192 168.737 158.544C169.075 157.946 169.324 157.301 169.477 156.631C169.593 156.117 169.642 155.59 169.623 155.063C169.619 154.862 169.587 154.687 169.576 154.574C169.562 154.459 169.544 154.392 169.544 154.392C169.533 154.352 169.516 154.289 169.504 154.248C168.724 151.565 165.916 150.023 163.233 150.804C163.233 150.804 163.166 150.823 163.06 150.87C162.958 150.919 162.791 150.98 162.616 151.08C162.154 151.333 161.726 151.644 161.344 152.007C160.846 152.481 160.419 153.025 160.078 153.621C159.706 154.264 159.404 155.002 159.196 155.795C159.088 156.194 159.004 156.6 158.943 157.009C158.882 157.423 158.835 157.837 158.826 158.259C158.806 158.671 158.809 159.084 158.835 159.495C158.857 159.888 158.898 160.28 158.959 160.668C159.012 161.021 159.081 161.371 159.165 161.718C159.236 162.036 159.338 162.335 159.408 162.574C159.473 162.81 159.567 163.02 159.61 163.152C159.662 163.288 159.698 163.365 159.698 163.365C159.773 163.526 159.895 163.66 160.049 163.748C160.203 163.835 160.381 163.873 160.557 163.855ZM129.709 185.416C129.709 185.416 129.732 185.498 129.78 185.636C129.832 185.764 129.897 185.985 130.001 186.206C130.102 186.434 130.22 186.727 130.372 187.016C130.533 187.334 130.708 187.645 130.896 187.948C131.103 188.283 131.325 188.608 131.563 188.922C131.81 189.252 132.075 189.568 132.358 189.868C132.638 190.183 132.943 190.468 133.258 190.743C133.57 191.015 133.897 191.269 134.239 191.503C134.911 191.971 135.62 192.337 136.321 192.584C136.967 192.817 137.645 192.954 138.331 192.992C138.857 193.019 139.385 192.979 139.901 192.871C140.099 192.833 140.266 192.772 140.375 192.743C140.486 192.709 140.549 192.681 140.549 192.681C140.587 192.663 140.646 192.636 140.685 192.617C143.198 191.395 144.244 188.368 143.023 185.855C143.023 185.855 142.993 185.793 142.929 185.696C142.864 185.603 142.775 185.45 142.647 185.293C142.396 184.971 142.015 184.568 141.519 184.195C140.968 183.784 140.361 183.456 139.715 183.22C139.019 182.961 138.24 182.788 137.424 182.716C137.012 182.677 136.597 182.662 136.184 182.671C135.765 182.681 135.349 182.704 134.932 182.767C134.523 182.816 134.116 182.889 133.715 182.984C132.984 183.153 132.27 183.388 131.58 183.683C131.278 183.808 131 183.957 130.777 184.067C130.555 184.171 130.364 184.299 130.242 184.364C130.175 184.403 130.11 184.444 130.046 184.487C129.9 184.587 129.789 184.731 129.729 184.898C129.668 185.064 129.661 185.246 129.709 185.416ZM98.6038 158.322C98.6038 158.322 98.5634 158.397 98.5031 158.53C98.4512 158.659 98.345 158.863 98.2662 159.094C98.1815 159.328 98.0626 159.621 97.9715 159.934C97.7519 160.652 97.5966 161.388 97.5071 162.133C97.456 162.542 97.4279 162.953 97.423 163.366C97.4065 163.787 97.4283 164.204 97.4639 164.62C97.4998 165.033 97.5597 165.443 97.6431 165.848C97.8029 166.652 98.0595 167.407 98.3923 168.071C98.6965 168.687 99.0889 169.256 99.5571 169.759C99.9819 170.212 100.423 170.547 100.771 170.762C100.94 170.872 101.103 170.944 101.202 170.998C101.305 171.051 101.37 171.074 101.37 171.074C101.41 171.088 101.472 171.11 101.512 171.123C104.17 171.987 107.024 170.532 107.888 167.875C107.888 167.875 107.909 167.81 107.931 167.696C107.948 167.584 107.991 167.412 108.007 167.211C108.058 166.686 108.041 166.157 107.957 165.637C107.845 164.959 107.636 164.301 107.334 163.683C107.013 163.014 106.572 162.349 106.034 161.731C105.768 161.42 105.478 161.121 105.172 160.838C104.864 160.555 104.548 160.283 104.205 160.038C103.875 159.79 103.533 159.56 103.178 159.35C102.534 158.965 101.857 158.638 101.155 158.373C100.851 158.253 100.547 158.168 100.31 158.092C100.078 158.012 99.8518 157.972 99.7186 157.934C99.6438 157.916 99.5684 157.9 99.4926 157.887C99.3175 157.858 99.1378 157.884 98.9785 157.962C98.8191 158.04 98.6881 158.166 98.6038 158.322ZM139.601 130.469C139.601 130.469 139.53 130.424 139.401 130.354C139.276 130.294 139.08 130.173 138.855 130.079C138.626 129.978 138.343 129.839 138.037 129.726C137.704 129.598 137.366 129.485 137.023 129.385C136.645 129.276 136.262 129.184 135.876 129.11C135.478 129.036 135.064 128.971 134.651 128.941C134.232 128.895 133.815 128.888 133.397 128.894C132.983 128.901 132.57 128.932 132.16 128.988C131.347 129.091 130.575 129.295 129.89 129.58C129.254 129.841 128.659 130.193 128.125 130.625C127.716 130.957 127.351 131.341 127.04 131.766C126.919 131.927 126.836 132.084 126.774 132.179C126.742 132.231 126.713 132.286 126.687 132.341C126.67 132.38 126.645 132.44 126.629 132.48C125.582 135.07 126.834 138.019 129.425 139.066C129.425 139.066 129.489 139.092 129.601 139.121C129.711 139.146 129.88 139.201 130.08 139.231C130.599 139.319 131.128 139.338 131.653 139.29C132.337 139.226 133.009 139.063 133.646 138.805C134.335 138.531 135.03 138.137 135.684 137.644C136.012 137.401 136.33 137.132 136.635 136.846C136.938 136.559 137.232 136.263 137.5 135.937C137.77 135.625 138.023 135.299 138.257 134.96C138.483 134.637 138.692 134.304 138.886 133.962C139.072 133.632 139.236 133.311 139.373 133.01C139.514 132.715 139.62 132.418 139.712 132.186C139.808 131.961 139.863 131.738 139.911 131.608C139.954 131.468 139.974 131.385 139.974 131.385C140.015 131.213 140.001 131.032 139.934 130.868C139.867 130.703 139.751 130.564 139.601 130.469ZM190.646 134.555C190.646 134.555 190.727 134.529 190.863 134.475C190.989 134.418 191.207 134.344 191.424 134.232C191.648 134.121 191.936 133.992 192.219 133.828C192.508 133.667 192.815 133.48 193.129 133.268C193.442 133.056 193.763 132.82 194.075 132.562C194.387 132.304 194.701 132.028 194.989 131.73C195.293 131.437 195.565 131.121 195.827 130.796C196.087 130.473 196.327 130.136 196.547 129.785C196.988 129.094 197.325 128.371 197.544 127.662C197.751 127.006 197.861 126.324 197.871 125.637C197.878 125.11 197.816 124.585 197.688 124.073C197.642 123.877 197.575 123.713 197.541 123.605C197.502 123.495 197.471 123.433 197.471 123.433C197.452 123.396 197.423 123.338 197.403 123.3C196.082 120.838 193.015 119.913 190.553 121.234C190.553 121.234 190.492 121.267 190.398 121.334C190.308 121.403 190.158 121.498 190.007 121.631C189.607 121.975 189.253 122.368 188.955 122.803C188.566 123.369 188.262 123.99 188.052 124.644C187.822 125.35 187.68 126.135 187.64 126.953C187.618 127.367 187.619 127.781 187.645 128.194C187.671 128.612 187.711 129.027 187.79 129.441C187.856 129.848 187.945 130.251 188.056 130.648C188.255 131.372 188.517 132.076 188.84 132.754C188.976 133.05 189.137 133.322 189.256 133.541C189.368 133.759 189.504 133.944 189.574 134.064C189.653 134.187 189.704 134.255 189.704 134.255C189.81 134.397 189.958 134.502 190.127 134.556C190.296 134.61 190.478 134.61 190.646 134.555ZM192.283 160.666C192.283 160.666 192.353 160.715 192.478 160.79C192.599 160.857 192.789 160.987 193.01 161.093C193.232 161.205 193.509 161.358 193.809 161.485C194.111 161.619 194.447 161.752 194.804 161.876C195.162 161.999 195.543 162.114 195.936 162.208C196.336 162.307 196.742 162.384 197.151 162.438C197.567 162.505 197.983 162.532 198.401 162.547C198.819 162.559 199.235 162.55 199.642 162.515C200.459 162.452 201.239 162.287 201.938 162.036C202.586 161.807 203.197 161.485 203.752 161.08C204.253 160.712 204.637 160.314 204.892 159.994C205.021 159.839 205.112 159.686 205.178 159.594C205.213 159.544 205.245 159.491 205.274 159.436C205.292 159.398 205.321 159.34 205.339 159.301C206.512 156.765 205.408 153.758 202.873 152.585C202.873 152.585 202.81 152.556 202.699 152.521C202.59 152.491 202.424 152.428 202.226 152.387C201.712 152.274 201.185 152.228 200.658 152.251C199.971 152.281 199.293 152.411 198.644 152.636C197.941 152.876 197.228 153.235 196.55 153.695C196.206 153.926 195.876 154.176 195.561 154.445C195.244 154.717 194.936 154.998 194.652 155.31C194.363 155.606 194.096 155.929 193.847 156.248C193.388 156.842 192.983 157.475 192.636 158.141C192.482 158.428 192.361 158.72 192.257 158.946C192.151 159.166 192.084 159.386 192.03 159.515C191.98 159.652 191.956 159.733 191.956 159.733C191.907 159.903 191.912 160.085 191.971 160.252C192.029 160.419 192.139 160.563 192.283 160.666Z" fill="#442A34"/>
</svg>
