<svg width="53" height="60" viewBox="0 0 53 60" fill="none" xmlns="http://www.w3.org/2000/svg">
<g clip-path="url(#clip0_35_525)">
<path d="M26.1465 16.628C25.9241 14.1816 24.6121 8.42162 21.1431 4.95264" stroke="#5E3311" stroke-width="2" stroke-linecap="round"/>
<path d="M41.3886 1.85367C34.9042 1.1709 23.0412 2.9179 27.4642 15.3681C32.1057 16.3238 41.3886 14.9588 41.3886 1.85367Z" fill="#C6DD76" stroke="#9CC02F" stroke-width="2" stroke-linecap="round"/>
<path d="M40.2603 2.72705C33.6993 5.76855 30.082 10.9089 28.3711 16.1805" stroke="#9CC02F" stroke-width="2" stroke-linecap="round"/>
<path d="M3.12179 24.5569C8.42391 14.7096 20.6909 14.8773 26.1617 16.3499H26.8382C32.309 14.8773 44.576 14.7096 49.8781 24.5569C55.1801 34.404 48.2215 48.9386 41.8304 55.3299C38.5164 58.644 32.519 59.4327 26.8382 56.2768H26.1617C20.4809 59.4327 14.4835 58.644 11.1695 55.3299C4.77843 48.9386 -2.18023 34.404 3.12179 24.5569Z" fill="#EAF473" stroke="#C4D069" stroke-width="2" stroke-linecap="round"/>
</g>
<defs>
<clipPath id="clip0_35_525">
<rect width="53" height="60" fill="white"/>
</clipPath>
</defs>
</svg>
