<svg width="33" height="62" viewBox="0 0 33 62" fill="none" xmlns="http://www.w3.org/2000/svg">
<g clip-path="url(#clip0_35_563)">
<path d="M20.6238 8.0841C22.0373 2.69261 24.6018 5.16385 25.7073 7.07341C43.6139 37.0917 16.1136 54.6289 9.03733 58.8579C0.241175 62.3589 2.27651 57.3413 4.39369 54.3949C20.8735 31.4605 18.7249 15.3272 20.6238 8.0841Z" fill="#FFE255" stroke="#FFC01B" stroke-width="2" stroke-linecap="round"/>
<path d="M22.7983 1.26483C24.439 1.29968 24.439 1.29968 24.4029 2.99636C24.3669 4.69049 24.3309 6.38717 22.6903 6.35232C21.0496 6.31747 21.1217 2.92666 21.1217 2.92666C21.1217 2.92666 21.1577 1.22998 22.7983 1.26483Z" fill="#5E3311"/>
<path d="M27.5889 20.9009C28.9908 27.8747 27.2357 30.5675 26.1298 34.2724" stroke="white" stroke-linecap="round"/>
</g>
<defs>
<clipPath id="clip0_35_563">
<rect width="33" height="62" fill="white"/>
</clipPath>
</defs>
</svg>
