<svg width="46" height="46" viewBox="0 0 46 46" fill="none" xmlns="http://www.w3.org/2000/svg">
<path d="M35.7779 2.55573C39.2074 0.840948 42.1667 7.66684 39.6112 19.1668C38.198 25.5263 33.2223 30.6668 28.1112 34.5002C23.0001 38.3335 14.0556 33.2224 19.1667 28.1113C24.2779 23.0002 29.389 19.1668 31.9445 11.5002C33.6107 6.5015 33.2223 3.8335 35.7779 2.55573Z" fill="#FFE8B6"/>
<path d="M39.6111 10.2222C39.6111 14.0555 38.3333 21.7222 34.5 26.8333C30.6667 31.9444 25.5556 33.2222 29.3889 28.1111C33.2222 23 35.7778 19.1666 37.0556 14.0555C38.3333 8.9444 39.6111 5.11106 39.6111 10.2222Z" fill="#FFD983"/>
<path d="M28.1112 25.5553C27.7329 26.3118 29.6023 20.6576 24.2778 17.8887C21.7427 16.57 11.5001 19.1664 19.1667 19.1664C23.0001 19.1664 24.2778 21.722 21.7223 24.2776C21.3856 24.6119 21.1159 25.0074 20.9275 25.4429C20.3947 25.885 19.812 26.3488 19.1667 26.8331C16.2751 29.0015 11.7045 32.2343 6.38894 35.7776C2.55561 38.3331 1.27783 39.6109 1.27783 40.8887C1.27783 44.722 12.7778 44.722 19.1667 42.1664C25.5556 39.6109 31.9445 33.222 31.9445 33.222L37.0556 28.1109C33.2223 22.9998 28.1112 25.5553 28.1112 25.5553Z" fill="#FFCC4D"/>
<path d="M28.1109 25.5556C28.1109 25.5556 30.4007 19.513 24.2776 16.6112C19.1128 14.163 14.0554 15.3334 10.222 17.889C6.3887 20.4445 7.66648 23.0001 6.3887 24.2778C5.11092 25.5556 7.66648 26.8334 10.222 24.2778C12.7776 21.7223 20.848 18.0231 24.2776 19.1667C28.1109 20.4445 26.8331 22.9988 28.1109 25.5556Z" fill="#FFE8B6"/>
<path d="M33.2221 44.7221H28.111C25.5554 44.7221 24.2776 45.9999 22.9999 45.9999C21.7221 45.9999 20.4443 43.4443 22.9999 43.4443C25.5554 43.4443 28.111 43.4443 29.3888 42.1665C30.6665 40.8888 35.7776 44.7221 33.2221 44.7221Z" fill="#A6D388"/>
<path d="M22.9999 45.9999C23.7056 45.9999 24.2777 45.4278 24.2777 44.7221C24.2777 44.0164 23.7056 43.4443 22.9999 43.4443C22.2942 43.4443 21.7222 44.0164 21.7222 44.7221C21.7222 45.4278 22.2942 45.9999 22.9999 45.9999Z" fill="#3E721D"/>
<path d="M41.1546 35.7776C41.1546 35.7776 35.7777 44.7221 33.2222 44.7221H28.111C25.5555 44.7221 28.111 43.4443 29.3888 42.1665C30.6666 40.8887 35.7777 42.1665 35.7777 34.4998C35.7777 30.6665 41.1546 35.7776 41.1546 35.7776Z" fill="#FFCC4D"/>
<path d="M33.2224 24.2778C37.0558 24.2778 43.4447 28.1112 42.1669 35.7778C40.8891 43.4445 35.778 44.7223 33.2224 44.7223H30.6669C28.1113 44.7223 29.3891 43.4445 30.6669 42.1667C31.9447 40.8889 35.778 42.1667 35.778 34.5001C35.778 30.6667 30.6669 25.5556 28.1113 25.5556C28.1113 25.5556 30.6669 24.2778 33.2224 24.2778Z" fill="#FFE8B6"/>
<path d="M21.722 26.8335C25.5553 26.8335 28.1109 28.1113 25.5553 30.6668C23.5352 32.687 17.8887 37.0557 12.7776 38.3335C7.66646 39.6113 2.55534 39.6113 6.38868 37.0557C10.222 34.5002 18.8649 26.8335 21.722 26.8335Z" fill="#FFD983"/>
<path d="M2.55561 39.6113C3.83339 39.6113 3.83339 39.6113 3.83339 40.4636C3.83339 41.3146 3.83339 42.1669 2.55561 42.1669C1.27783 42.1669 1.27783 40.4636 1.27783 40.4636C1.27783 40.4636 1.27783 39.6113 2.55561 39.6113Z" fill="#C1694F"/>
</svg>
