<svg width="49" height="61" viewBox="0 0 49 61" fill="none" xmlns="http://www.w3.org/2000/svg">
<path d="M46.9982 36.8934C46.9982 49.5749 36.7218 59.8561 24.0345 59.8561C11.3531 59.8561 1.06982 49.5727 1.06982 36.8934C1.06982 24.2021 11.35 13.9277 24.0335 13.9277C36.7248 13.9277 46.9982 24.2069 46.9982 36.8934Z" fill="#354A52" stroke="#2B3D42" stroke-width="2"/>
<mask id="path-2-inside-1_34_465" fill="white">
<path d="M39.2742 26.788C38.8042 27.2584 38.2461 27.6316 37.6318 27.8862C37.0175 28.1408 36.3591 28.2718 35.6941 28.2718C35.0292 28.2718 34.3707 28.1408 33.7564 27.8862C33.1421 27.6316 32.5841 27.2584 32.1141 26.788C31.6437 26.3179 31.2707 25.7596 31.0163 25.1452C30.7619 24.5308 30.6311 23.8723 30.6313 23.2073C30.6316 22.5423 30.763 21.8839 31.0179 21.2697C31.2729 20.6555 31.6464 20.0976 32.1171 19.6278L39.3626 12.3814C40.3121 11.4319 41.5999 10.8984 42.9426 10.8984C44.2854 10.8984 45.5732 11.4319 46.5227 12.3814C47.4722 13.3309 48.0056 14.6186 48.0056 15.9614C48.0056 17.3042 47.4722 18.592 46.5227 19.5415L39.2793 26.786"/>
</mask>
<path d="M39.2742 26.788C38.8042 27.2584 38.2461 27.6316 37.6318 27.8862C37.0175 28.1408 36.3591 28.2718 35.6941 28.2718C35.0292 28.2718 34.3707 28.1408 33.7564 27.8862C33.1421 27.6316 32.5841 27.2584 32.1141 26.788C31.6437 26.3179 31.2707 25.7596 31.0163 25.1452C30.7619 24.5308 30.6311 23.8723 30.6313 23.2073C30.6316 22.5423 30.763 21.8839 31.0179 21.2697C31.2729 20.6555 31.6464 20.0976 32.1171 19.6278L39.3626 12.3814C40.3121 11.4319 41.5999 10.8984 42.9426 10.8984C44.2854 10.8984 45.5732 11.4319 46.5227 12.3814C47.4722 13.3309 48.0056 14.6186 48.0056 15.9614C48.0056 17.3042 47.4722 18.592 46.5227 19.5415L39.2793 26.786" fill="#354A52"/>
<path d="M35.6941 28.2718L35.6941 30.2718L35.6941 28.2718ZM32.1141 26.788L33.5289 25.3744L33.528 25.3735L32.1141 26.788ZM32.1171 19.6278L33.5298 21.0435L33.5314 21.042L32.1171 19.6278ZM39.3626 12.3814L37.9483 10.9671L37.9483 10.9672L39.3626 12.3814ZM48.0056 15.9614L50.0056 15.9614L48.0056 15.9614ZM46.5227 19.5415L45.1085 18.1273L45.1084 18.1274L46.5227 19.5415ZM37.8594 25.3744C37.5751 25.6589 37.2376 25.8846 36.8661 26.0386L38.3976 29.7338C39.2546 29.3785 40.0333 28.8579 40.689 28.2016L37.8594 25.3744ZM36.8661 26.0386C36.4945 26.1925 36.0963 26.2718 35.6941 26.2718L35.6941 30.2718C36.6219 30.2718 37.5405 30.089 38.3976 29.7338L36.8661 26.0386ZM35.6941 26.2718C35.292 26.2718 34.8937 26.1925 34.5222 26.0386L32.9907 29.7338C33.8477 30.089 34.7664 30.2718 35.6941 30.2718L35.6941 26.2718ZM34.5222 26.0386C34.1507 25.8846 33.8131 25.6589 33.5289 25.3744L30.6992 28.2016C31.355 28.8579 32.1336 29.3785 32.9907 29.7338L34.5222 26.0386ZM33.528 25.3735C33.2436 25.0892 33.018 24.7516 32.8641 24.3801L29.1684 25.9104C29.5234 26.7676 30.0439 27.5465 30.7001 28.2025L33.528 25.3735ZM32.8641 24.3801C32.7103 24.0085 32.6312 23.6103 32.6313 23.2081L28.6313 23.2064C28.631 24.1343 28.8135 25.0531 29.1684 25.9104L32.8641 24.3801ZM32.6313 23.2081C32.6315 22.806 32.711 22.4078 32.8651 22.0364L29.1707 20.5029C28.815 21.3599 28.6317 22.2786 28.6313 23.2064L32.6313 23.2081ZM32.8651 22.0364C33.0193 21.665 33.2452 21.3276 33.5298 21.0435L30.7044 18.2121C30.0476 18.8675 29.5264 19.646 29.1707 20.5029L32.8651 22.0364ZM33.5314 21.042L40.7769 13.7955L37.9483 10.9672L30.7028 18.2137L33.5314 21.042ZM40.7768 13.7956C41.3512 13.2211 42.1303 12.8984 42.9426 12.8984V8.89844C41.0694 8.89844 39.2729 9.64257 37.9483 10.9671L40.7768 13.7956ZM42.9426 12.8984C43.755 12.8984 44.5341 13.2211 45.1085 13.7956L47.9369 10.9671C46.6124 9.64257 44.8159 8.89844 42.9426 8.89844V12.8984ZM45.1085 13.7956C45.6829 14.37 46.0056 15.1491 46.0056 15.9614L50.0056 15.9614C50.0056 14.0882 49.2615 12.2917 47.9369 10.9671L45.1085 13.7956ZM46.0056 15.9614C46.0056 16.7738 45.6829 17.5529 45.1085 18.1273L47.9369 20.9557C49.2615 19.6312 50.0056 17.8347 50.0056 15.9614H46.0056ZM45.1084 18.1274L37.865 25.3719L40.6936 28.2001L47.937 20.9556L45.1084 18.1274Z" fill="#2B3D42" mask="url(#path-2-inside-1_34_465)"/>
<path d="M42.2702 38.3156C42.2702 39.1001 41.9585 39.8525 41.4038 40.4072C40.849 40.9619 40.0967 41.2736 39.3121 41.2736C38.5276 41.2736 37.7752 40.9619 37.2205 40.4072C36.6658 39.8525 36.3541 39.1001 36.3541 38.3156V31.7211C36.3469 31.328 36.418 30.9375 36.5634 30.5722C36.7087 30.2069 36.9255 29.8743 37.2009 29.5938C37.4763 29.3132 37.8048 29.0904 38.1673 28.9383C38.5298 28.7861 38.919 28.7078 39.3121 28.7078C39.7053 28.7078 40.0945 28.7861 40.457 28.9383C40.8195 29.0904 41.148 29.3132 41.4234 29.5938C41.6988 29.8743 41.9155 30.2069 42.0609 30.5722C42.2063 30.9375 42.2774 31.328 42.2702 31.7211V38.3156ZM40.442 6.98149C35.5223 6.69814 30.5884 6.8779 25.6626 6.78243C21.7271 6.70626 14.1627 7.06071 11.6044 3.27142C11.062 2.46907 9.09171 2.78798 9.74577 3.7579C13.3858 9.1529 23.0708 8.35157 28.673 8.39829C33.0747 8.43587 37.4977 8.2622 41.8862 8.65728C46.3083 9.05743 48.3771 10.6174 45.0459 14.4748C44.2628 15.3807 45.9934 16.2958 46.6384 15.5493C51.8394 9.52665 46.4109 7.32274 40.44 6.98149" fill="#7BA1AD"/>
<circle cx="9.61426" cy="2.81641" r="2.16016" fill="#FBB041"/>
</svg>
