<svg width="64" height="64" viewBox="0 0 64 64" fill="none" xmlns="http://www.w3.org/2000/svg">
<path d="M52.13 39.9998C52.13 53.0298 41.571 63.5938 28.535 63.5938C15.505 63.5938 4.93896 53.0278 4.93896 39.9998C4.93896 26.9598 15.502 16.4028 28.534 16.4028C41.574 16.4028 52.13 26.9648 52.13 39.9998Z" fill="#354A52"/>
<path opacity="0.6" d="M15.5829 20.231C9.17892 24.449 4.94092 31.697 4.94092 39.939C4.94092 52.979 15.5039 63.534 28.5359 63.534C28.7699 63.534 28.9959 63.504 29.2259 63.5C23.8189 58.948 6.25092 41.882 15.5829 20.23" fill="#243438"/>
<path d="M43.5402 30.0499C43.0774 30.513 42.5279 30.8805 41.923 31.1312C41.3182 31.3818 40.6699 31.5109 40.0152 31.5109C39.3604 31.5109 38.7121 31.3818 38.1073 31.1312C37.5024 30.8805 36.9529 30.513 36.4902 30.0499C36.0271 29.587 35.6598 29.0373 35.4093 28.4324C35.1588 27.8274 35.03 27.179 35.0303 26.5243C35.0306 25.8695 35.1599 25.2212 35.4109 24.6165C35.6619 24.0117 36.0297 23.4624 36.4932 22.9999L43.6272 15.8649C44.5621 14.93 45.83 14.4048 47.1522 14.4048C48.4743 14.4048 49.7423 14.93 50.6772 15.8649C51.6121 16.7998 52.1373 18.0678 52.1373 19.3899C52.1373 20.712 51.6121 21.98 50.6772 22.9149L43.5452 30.0479" fill="#354A52"/>
<path d="M46.4899 41.3998C46.4899 42.1722 46.1831 42.913 45.6369 43.4592C45.0907 44.0054 44.3499 44.3123 43.5774 44.3123C42.805 44.3123 42.0642 44.0054 41.518 43.4592C40.9718 42.913 40.6649 42.1722 40.6649 41.3998V34.9068C40.6577 34.5198 40.7278 34.1352 40.8709 33.7756C41.0141 33.4159 41.2275 33.0884 41.4986 32.8122C41.7698 32.536 42.0933 32.3165 42.4502 32.1667C42.8071 32.017 43.1903 31.9398 43.5774 31.9398C43.9645 31.9398 44.3477 32.017 44.7046 32.1667C45.0616 32.3165 45.3851 32.536 45.6562 32.8122C45.9274 33.0884 46.1408 33.4159 46.2839 33.7756C46.4271 34.1352 46.4971 34.5198 46.4899 34.9068V41.3998ZM44.6899 10.5478C39.8459 10.2688 34.9879 10.4458 30.1379 10.3518C26.2629 10.2768 18.8149 10.6258 16.2959 6.89479C15.7619 6.10479 13.8219 6.41879 14.4659 7.37379C18.0499 12.6858 27.5859 11.8968 33.1019 11.9428C37.4359 11.9798 41.7909 11.8088 46.1119 12.1978C50.4659 12.5918 52.5029 14.1278 49.2229 17.9258C48.4519 18.8178 50.1559 19.7188 50.7909 18.9838C55.9119 13.0538 50.5669 10.8838 44.6879 10.5478" fill="#7BA1AD"/>
<circle cx="13.5" cy="5.5" r="2.5" fill="#FBB041"/>
</svg>
