<svg width="69" height="59" viewBox="0 0 69 59" fill="none" xmlns="http://www.w3.org/2000/svg">
<path d="M41.5235 19.8547L41.4854 7.9487L35.3722 15.7326L30.0851 4L28.1946 20.3778L14.5193 18.4996L21.8399 25.4957L5.63547 28.5241L21.1854 32.3846L5 50.3727L27.4638 38.1422L27.5051 50.0513L33.6246 42.2705L38.9149 54L40.7768 37.6096L54.4712 39.4941L47.1633 32.5043L63.3677 29.4727L47.8083 25.6186L64 7.6304L41.5235 19.8547Z" fill="#FBB041"/>
<path d="M37.9412 24.9265L37.938 18.9729L34.9311 22.8651L32.3318 17L31.3849 25.1889L24.6781 24.2499L28.2494 27.7468L20.3104 29.2645L27.9578 31.1931L20 40.182L31.04 34.0672L31.0651 40.0176L34.0689 36.1318L36.6619 42L37.5931 33.8079L44.3344 34.7438L40.7286 31.25L48.6896 29.7355L41.0422 27.8069L49 18.8148L37.9412 24.9265Z" fill="white"/>
<path d="M69 3.98222L49.7971 25.5226L68.1688 30.1233L49.3863 33.6719L57.5483 41.5726L41.8197 39.3886L39.5842 59L33.3488 45.0574L26.3618 54.0262L26.3236 40.5715L0 55.0305L19.2029 33.4902L0.837541 28.8894L19.6137 25.3313L11.4485 17.437L27.1866 19.6146L29.4254 0L35.648 13.9521L42.6318 4.98017L42.6764 18.4445L69 3.98222ZM45.0202 32.4285L58.6693 29.8459L45.8992 26.6257L59.1406 11.7809L40.4313 22.0537L40.4026 11.4142L35.1258 18.1894L30.7534 8.40443L29.212 21.9293L17.5279 20.316L24.0021 26.5683L10.3498 29.1509L23.1518 32.3392L9.89763 47.1968L28.6165 36.9176L28.642 47.5571L33.9156 40.7851L38.2849 50.5669L39.8389 37.0388L51.5167 38.6553L45.0457 32.4062" fill="#DF394C"/>
</svg>
