<svg width="49" height="49" viewBox="0 0 49 49" fill="none" xmlns="http://www.w3.org/2000/svg">
<path d="M35.9062 4.81692C36.5637 4.76384 37.6199 3.92539 38.1711 4.00706C38.7224 4.08873 40.3122 5.47434 40.4442 5.75337C40.5762 6.03239 39.5772 7.35675 39.4288 7.76781C39.2804 8.17887 38.5577 8.09312 37.3735 7.02873C36.1907 5.96434 35.9062 4.81692 35.9062 4.81692Z" fill="#77B255"/>
<path d="M16.7415 4.27236C22.9278 0.651809 32.0772 0.718504 35.3683 3.48292C37.5693 5.33131 39.3727 6.75095 41.458 7.58123C44.2101 8.67556 46.4832 11.8742 47.4673 14.9094C48.8025 19.0241 49.7539 32.0309 36.5389 40.1118C28.0551 45.3003 12.5071 47.4114 10.7309 46.5403C9.39154 45.8829 4.44118 43.6956 1.64546 37.7571C-1.15027 31.8185 -1.80224 15.1231 16.7415 4.27236Z" fill="#EA564B"/>
<path d="M23.5867 3.54845C30.7312 1.53128 36.0695 6.45578 32.7728 6.80559C26.8398 7.43578 20.5024 13.5689 15.5888 18.2049C6.57145 26.7118 4.52979 36.9202 3.33882 35.2188C1.40059 32.4503 1.3407 22.7673 8.18573 14.2767C15.0308 5.78612 20.5773 4.39914 23.5867 3.54845Z" fill="#F97253"/>
<path d="M38.4799 5.82275C41.439 6.77145 45.2678 12.0349 45.2093 16.4544C45.0541 28.2348 39.5851 32.7768 39.5851 32.7768C39.5851 32.7768 36.113 20.0845 36.6302 15.4649C37.0086 12.092 38.8706 11.1556 39.204 9.24595C39.5157 7.4697 38.4799 5.82275 38.4799 5.82275Z" fill="#77B255"/>
</svg>
