<svg width="31" height="36" viewBox="0 0 31 36" fill="none" xmlns="http://www.w3.org/2000/svg">
<g clip-path="url(#clip0_35_560)">
<path d="M3.47297 20.1985C-3.30597 8.2869 6.94301 5.06704 12.9149 4.94607L16.286 4.70834C35.012 3.95173 28.5277 18.1612 27.9603 20.1946C27.3928 22.228 26.3111 28.4942 24.9397 30.9531C23.2373 33.2986 20.5719 33.6379 19.452 33.5144C15.9329 36.1885 14.0297 33.9134 11.9468 31.8196C9.88895 29.2776 4.98543 22.8561 3.47297 20.1985Z" fill="#ED4B71" stroke="#C13434" stroke-width="2" stroke-linecap="round"/>
<ellipse cx="6.98175" cy="13.6458" rx="1.21857" ry="0.813702" transform="rotate(60 6.98175 13.6458)" fill="#F4ABBA"/>
<ellipse cx="12.3519" cy="12.1838" rx="1.21857" ry="0.813702" transform="rotate(60 12.3519 12.1838)" fill="#F4ABBA"/>
<ellipse cx="17.7218" cy="11.3706" rx="1.21857" ry="0.813702" transform="rotate(85.722 17.7218 11.3706)" fill="#F4ABBA"/>
<ellipse cx="23.198" cy="11.2495" rx="1.21857" ry="0.813702" transform="rotate(108.134 23.198 11.2495)" fill="#F4ABBA"/>
<ellipse cx="18.6239" cy="16.0132" rx="1.21857" ry="0.813702" transform="rotate(95.6031 18.6239 16.0132)" fill="#F4ABBA"/>
<ellipse cx="23.9183" cy="16.2847" rx="1.21857" ry="0.813702" transform="rotate(108.134 23.9183 16.2847)" fill="#F4ABBA"/>
<ellipse cx="21.323" cy="23.0737" rx="1.21857" ry="0.813702" transform="rotate(108.134 21.323 23.0737)" fill="#F4ABBA"/>
<ellipse cx="12.4471" cy="16.7761" rx="1.21857" ry="0.813702" transform="rotate(60 12.4471 16.7761)" fill="#F4ABBA"/>
<ellipse cx="8.29571" cy="18.887" rx="1.21857" ry="0.813702" transform="rotate(60 8.29571 18.887)" fill="#F4ABBA"/>
<ellipse cx="13.5706" cy="24.5354" rx="1.21857" ry="0.813702" transform="rotate(60 13.5706 24.5354)" fill="#F4ABBA"/>
<ellipse cx="18.1534" cy="27.3857" rx="1.21857" ry="0.813702" transform="rotate(75 18.1534 27.3857)" fill="#F4ABBA"/>
<ellipse cx="16.8194" cy="20.8164" rx="1.21857" ry="0.813702" transform="rotate(78.9432 16.8194 20.8164)" fill="#F4ABBA"/>
<path d="M19.9569 2.25197L19.9881 3.10054C21.8949 3.21753 23.6635 3.66083 24.8303 4.49599C24.3827 4.55634 23.706 4.56276 22.9317 4.5337C22.0438 4.50038 21.0845 4.42347 20.3142 4.35543C20.0893 4.33557 19.8903 4.31736 19.7114 4.30099C19.5761 4.28861 19.4523 4.27729 19.3374 4.26709C19.1062 4.24655 18.8885 4.22775 18.7904 4.23193L18.1402 4.25963L18.3345 4.88075C18.5139 5.45431 18.8847 6.00511 19.1961 6.42057C19.3214 6.58778 19.4446 6.74265 19.5472 6.87157C19.574 6.90526 19.5994 6.93718 19.623 6.96709C19.6818 7.04143 19.7283 7.1013 19.7634 7.14952C19.775 7.16551 19.784 7.17829 19.7907 7.18819C19.787 7.18946 19.783 7.19074 19.779 7.19203C19.7103 7.21384 19.6193 7.23237 19.5071 7.24549C19.0426 7.29982 18.4419 7.23914 18.1712 7.20945L18.1709 7.20942C17.662 7.15396 16.7126 6.87767 15.8459 6.56342C15.4196 6.40888 15.0321 6.25193 14.749 6.11938C14.606 6.05244 14.5004 5.99666 14.4327 5.95483C14.4314 5.95405 14.4302 5.95328 14.429 5.95253L14.0932 5.13454L13.5793 5.981C13.2144 6.58212 12.387 7.14302 11.4591 7.603C10.5568 8.05032 9.65746 8.35581 9.2519 8.48904C9.16024 8.51846 8.54199 8.67346 7.94057 8.76207C7.68365 8.79992 7.45461 8.82171 7.28259 8.82158C7.34718 8.39256 7.65864 7.87164 8.47025 7.06003L9.68347 5.84682L8.00843 6.21834C7.7599 6.27346 7.43348 6.40268 7.11983 6.53574C6.94205 6.61116 6.74286 6.69913 6.54786 6.78524C6.40003 6.85053 6.25461 6.91475 6.12277 6.97162C6.00916 7.02064 5.90244 7.06562 5.80393 7.10556C5.91958 6.89551 6.0916 6.66371 6.32768 6.42332C6.80953 5.93268 7.49694 5.47208 8.29184 5.1748L9.16727 4.8474L8.40907 4.30087C8.29736 4.22034 8.17737 4.19752 8.1281 4.18906C8.06218 4.17774 7.99424 4.17326 7.93342 4.1715C7.81065 4.16792 7.66411 4.17421 7.51349 4.18424C7.29897 4.19851 7.04275 4.22293 6.78666 4.24734C6.68393 4.25713 6.58122 4.26692 6.48123 4.27605C6.38113 4.28519 6.28363 4.29369 6.19003 4.30114C6.40754 4.19885 6.66687 4.10208 6.94942 4.01365C7.79754 3.7482 8.72723 3.59624 9.02031 3.56939L9.32848 3.54116L9.44068 3.25276C9.50025 3.09964 9.51352 2.9059 9.41582 2.72004C9.32966 2.55611 9.19193 2.46673 9.09752 2.41935C9.00793 2.37438 8.90702 2.34268 8.8053 2.31962C9.24032 2.25064 9.69625 2.20648 10.1167 2.20648C11.5859 2.20648 12.4045 2.34768 12.9036 2.48945C13.1522 2.56006 13.3303 2.63323 13.4847 2.69934C13.5004 2.70607 13.5166 2.71308 13.5332 2.72028C13.6654 2.77748 13.8254 2.84673 13.9908 2.88293L14.2303 2.93531L14.4184 2.77807C15.3192 2.02499 16.7099 1.62123 17.9166 1.50192C18.395 1.45463 18.822 1.45444 19.1542 1.48767L19.488 2.33597C19.646 2.3083 19.8021 2.28007 19.9569 2.25197ZM25.2325 4.3985C25.2326 4.39852 25.2315 4.39934 25.2287 4.40088C25.2311 4.39925 25.2324 4.39849 25.2325 4.3985Z" fill="#C0D96C" stroke="#99BD29"/>
</g>
<defs>
<clipPath id="clip0_35_560">
<rect width="31" height="36" fill="white"/>
</clipPath>
</defs>
</svg>
