<svg width="93" height="93" viewBox="0 0 93 93" fill="none" xmlns="http://www.w3.org/2000/svg">
<circle cx="46.8286" cy="46.77" r="45.1464" fill="#35A62B" stroke="#1F7B27" stroke-width="2"/>
<path d="M36.1331 6.01709C18.3362 19.658 -6.5794 55.4284 36.1331 89.383C31.2314 78.4283 15.5684 45.6215 36.1331 6.01709Z" fill="#2D8230"/>
<path d="M57.5236 88.1782C75.3205 74.5373 100.236 38.7669 57.5237 4.81231C62.4253 15.767 78.0883 48.5738 57.5236 88.1782Z" fill="#2D8230"/>
<path d="M36.133 4.8125C17.1395 18.7637 -4.81726 58.0297 34.196 88.7066" stroke="#1B6719" stroke-linecap="round"/>
<path d="M57.5239 89.3828C74.9405 75.5956 97.8482 44.2883 59.461 5.4887" stroke="#1B6719" stroke-linecap="round"/>
<path d="M47.0318 5.15039C39.8039 19.1016 31.4484 58.3676 46.2946 89.0445C66.2721 56.8696 55.11 19.7089 47.0318 5.15039Z" fill="#2D8230" stroke="#1B6719" stroke-linecap="round"/>
</svg>
